<?xml version="1.0" standalone="no"?>
<!DOCTYPE svg PUBLIC "-//W3C//DTD SVG 20010904//EN"
 "http://www.w3.org/TR/2001/REC-SVG-20010904/DTD/svg10.dtd">
<svg version="1.0" xmlns="http://www.w3.org/2000/svg"
 width="228.000000pt" height="228.000000pt" viewBox="0 0 228.000000 228.000000"
 preserveAspectRatio="xMidYMid meet">

<g transform="translate(0.000000,228.000000) scale(0.100000,-0.100000)"
fill="#000000" stroke="none">
<path d="M985 2270 c-484 -76 -848 -413 -958 -884 -29 -129 -29 -363 0 -492
102 -438 429 -766 867 -867 123 -28 353 -30 476 -4 442 95 780 429 883 871 16
72 21 124 21 246 0 122 -5 174 -21 246 -101 436 -431 767 -862 865 -100 23
-317 33 -406 19z m398 -159 c300 -79 553 -293 673 -571 64 -148 77 -215 77
-400 0 -185 -13 -252 -77 -400 -97 -224 -292 -419 -516 -516 -148 -64 -215
-77 -400 -77 -185 0 -252 13 -400 77 -224 97 -419 292 -516 516 -64 148 -77
215 -77 400 0 185 13 252 77 400 130 301 411 523 739 586 103 19 319 12 420
-15z"/>
<path d="M770 1675 l0 -85 -44 0 -45 0 -3 -47 -3 -48 -88 -3 -88 -3 3 -42 3
-42 88 -3 88 -3 -3 -32 -3 -32 -88 -3 -88 -3 3 -42 3 -42 88 -3 87 -3 0 -34 0
-35 -91 0 -90 0 3 -42 3 -43 88 -3 87 -3 0 -34 0 -35 -90 0 -90 0 0 -45 0 -45
90 0 90 0 0 -35 0 -34 -87 -3 -88 -3 -3 -42 -3 -43 90 0 91 0 0 -50 0 -50 45
0 45 0 0 -85 0 -85 45 0 45 0 0 85 0 85 40 0 40 0 0 -85 0 -85 40 0 40 0 0 85
0 85 40 0 40 0 0 -85 0 -85 40 0 40 0 0 85 0 85 40 0 40 0 0 -85 0 -85 40 0
40 0 0 85 0 85 40 0 40 0 0 -85 0 -85 45 0 45 0 0 85 0 85 45 0 45 0 0 50 0
50 91 0 90 0 -3 43 -3 42 -87 3 -88 3 0 34 0 35 90 0 90 0 0 45 0 45 -90 0
-90 0 0 35 0 34 88 3 87 3 3 43 3 42 -90 0 -91 0 0 35 0 34 88 3 87 3 3 42 3
42 -88 3 -88 3 -3 32 -3 32 88 3 88 3 3 42 3 42 -88 3 -88 3 -3 48 -3 47 -45
0 -44 0 0 85 0 85 -45 0 -45 0 0 -85 0 -85 -40 0 -40 0 0 85 0 85 -40 0 -40 0
0 -85 0 -85 -40 0 -40 0 0 85 0 85 -40 0 -40 0 0 -85 0 -85 -40 0 -40 0 0 85
0 85 -40 0 -40 0 0 -85 0 -85 -40 0 -40 0 0 85 0 85 -45 0 -45 0 0 -85z m508
-547 l3 -138 -141 0 -140 0 0 133 c0 74 3 137 7 141 4 3 66 5 137 4 l131 -3 3
-137z"/>
</g>
</svg>
