<?xml version="1.0" standalone="no"?>
<!DOCTYPE svg PUBLIC "-//W3C//DTD SVG 20010904//EN"
 "http://www.w3.org/TR/2001/REC-SVG-20010904/DTD/svg10.dtd">
<svg version="1.0" xmlns="http://www.w3.org/2000/svg"
 width="354.000000pt" height="354.000000pt" viewBox="0 0 354.000000 354.000000"
 preserveAspectRatio="xMidYMid meet">
<metadata>
Created by potrace 1.11, written by Peter Selinger 2001-2013
</metadata>
<g transform="translate(0.000000,354.000000) scale(0.100000,-0.100000)"
fill="#000000" stroke="none">
<path d="M1723 3446 c3 -7 0 -19 -6 -25 -16 -16 17 -48 35 -35 12 8 35 10 48
4 3 -2 67 -4 143 -5 l137 -2 0 34 c0 23 -5 33 -15 33 -8 0 -15 -3 -15 -8 0 -4
-40 -7 -90 -7 -49 0 -90 3 -90 8 0 4 -7 7 -16 7 -11 0 -14 -5 -10 -16 5 -13 3
-14 -7 -6 -7 6 -25 9 -40 8 -22 -3 -25 -1 -16 10 9 11 5 14 -26 14 -27 0 -36
-4 -32 -14z"/>
<path d="M1542 3433 c3 -15 14 -17 83 -14 86 3 90 4 80 20 -3 6 -40 11 -86 11
-71 0 -80 -2 -77 -17z"/>
<path d="M1460 3424 c0 -11 8 -14 32 -12 46 4 49 28 4 28 -26 0 -36 -4 -36
-16z"/>
<path d="M2110 3405 c0 -16 6 -25 15 -25 9 0 15 9 15 25 0 16 -6 25 -15 25 -9
0 -15 -9 -15 -25z"/>
<path d="M1662 3398 c7 -19 38 -22 38 -4 0 10 -9 16 -21 16 -12 0 -19 -5 -17
-12z"/>
<path d="M2206 3403 c-15 -16 -2 -23 40 -23 31 0 44 4 42 12 -5 13 -71 21 -82
11z"/>
<path d="M1350 3387 c-40 -14 -50 -40 -24 -68 9 -10 12 -19 7 -19 -21 0 -24
-34 -5 -53 16 -16 23 -17 41 -8 31 17 28 66 -4 87 -30 20 -32 34 -5 34 14 0
18 -5 13 -17 -5 -13 -2 -15 15 -11 20 6 22 2 22 -38 0 -30 5 -46 15 -50 8 -4
15 -12 15 -20 0 -9 12 -14 35 -14 19 0 35 5 35 10 0 6 -14 10 -31 10 -27 0
-30 2 -19 15 7 8 22 14 34 13 11 -1 31 2 43 6 18 6 22 4 17 -8 -5 -12 0 -16
19 -16 24 0 25 3 20 43 -8 76 -12 86 -39 93 -17 4 -31 1 -44 -11 -22 -20 -26
-45 -8 -45 9 0 9 -3 -1 -12 -10 -11 -14 -9 -22 5 -8 14 -14 16 -25 6 -11 -9
-14 -8 -14 5 0 9 8 16 20 16 11 0 20 7 20 15 0 8 -9 15 -20 15 -11 0 -20 7
-20 15 0 8 -7 15 -15 15 -8 0 -15 -8 -15 -17 0 -15 -1 -15 -12 -1 -11 14 -18
15 -48 5z m210 -53 c0 -8 -6 -14 -14 -14 -9 0 -12 7 -9 20 6 22 23 18 23 -6z
m-15 -44 c-3 -5 -14 -10 -23 -10 -15 0 -15 2 -2 10 20 13 33 13 25 0z m-184
-23 c-10 -9 -11 -8 -5 6 3 10 9 15 12 12 3 -3 0 -11 -7 -18z"/>
<path d="M1603 3375 c-6 -14 -7 -27 -2 -31 5 -3 9 -21 9 -41 0 -20 7 -44 16
-54 15 -17 14 -18 -20 -24 -37 -7 -39 -12 -38 -70 0 -11 -5 -23 -12 -27 -8 -6
-7 -11 4 -18 8 -5 10 -10 4 -10 -6 0 -11 -11 -11 -25 0 -14 3 -25 7 -25 4 0 6
-27 6 -60 l-2 -60 33 0 c18 0 33 5 33 10 0 6 -4 10 -10 10 -5 0 -10 4 -10 10
0 5 7 7 15 4 8 -4 15 -14 15 -24 0 -21 23 -33 38 -18 12 12 5 38 -12 38 -7 0
-11 31 -11 97 0 94 -1 98 -22 101 -16 2 -23 10 -23 25 0 19 5 22 42 22 46 0
65 18 24 23 -23 3 -24 4 -9 22 16 18 17 18 34 -3 17 -21 17 -22 38 -3 12 11
21 31 21 48 0 30 -17 37 -38 16 -9 -9 -12 -9 -12 -1 0 7 9 15 20 18 11 4 20
15 20 26 0 28 -42 21 -55 -9 -5 -12 -15 -20 -22 -18 -7 3 -17 -3 -22 -12 -9
-15 -10 -14 -11 6 0 15 6 22 20 22 11 0 20 7 20 15 0 8 -9 15 -20 15 -11 0
-20 7 -20 15 0 24 -24 17 -37 -10z m121 -101 c3 -8 2 -12 -4 -9 -6 3 -10 10
-10 16 0 14 7 11 14 -7z"/>
<path d="M2147 3378 c-8 -34 8 -117 25 -135 14 -13 18 -12 37 8 23 25 28 64 9
75 -6 4 -17 -1 -25 -11 -12 -18 -13 -18 -13 2 0 15 7 23 22 25 32 5 35 28 3
28 -20 0 -26 4 -21 15 3 10 -1 15 -13 15 -11 0 -21 -9 -24 -22z m48 -108 c3
-5 1 -10 -4 -10 -6 0 -11 5 -11 10 0 6 2 10 4 10 3 0 8 -4 11 -10z"/>
<path d="M1240 3360 c0 -5 11 -10 25 -10 14 0 25 5 25 10 0 6 -11 10 -25 10
-14 0 -25 -4 -25 -10z"/>
<path d="M1872 3362 c-7 -5 -35 -7 -62 -5 l-50 3 7 -28 c4 -15 8 -42 7 -59 0
-28 3 -33 23 -33 13 0 23 1 23 3 0 1 -4 16 -9 34 -7 23 -5 37 4 50 13 17 14
17 21 0 3 -10 4 -33 1 -52 -5 -31 -3 -35 17 -35 22 0 23 3 18 50 -3 33 -1 50
7 50 7 0 11 -19 11 -49 0 -52 18 -72 40 -46 10 12 15 12 35 -1 21 -14 24 -13
44 12 25 31 27 52 6 60 -19 8 -9 24 14 24 16 0 17 -6 10 -47 -4 -27 -5 -49 -4
-51 6 -7 97 -4 103 4 4 3 2 8 -3 10 -6 2 -9 21 -7 42 4 48 -18 82 -42 63 -10
-8 -16 -9 -16 -3 0 16 -82 11 -102 -6 -10 -8 -18 -21 -18 -28 0 -21 -26 -6
-38 22 -12 26 -19 28 -40 16z m228 -62 c0 -29 -4 -40 -15 -40 -18 0 -21 50 -3
68 17 17 18 16 18 -28z"/>
<path d="M2240 3335 l0 -35 91 0 c67 0 94 4 105 15 21 21 7 38 -27 33 -20 -3
-29 0 -29 9 0 18 -10 16 -26 -4 -13 -17 -14 -17 -8 0 5 14 0 17 -25 17 -23 0
-31 -5 -31 -17 -1 -17 -1 -17 -14 0 -21 27 -36 20 -36 -18z"/>
<path d="M1161 3318 c1 -13 -1 -31 -5 -40 -8 -18 9 -58 25 -58 5 0 0 -13 -11
-28 -16 -21 -19 -36 -14 -56 8 -33 46 -60 74 -53 11 3 20 1 20 -4 0 -5 -33 -8
-72 -7 l-73 3 -3 -30 -3 -30 96 0 95 0 0 38 c0 27 -4 37 -16 37 -14 0 -14 2 0
15 23 24 18 213 -6 229 -13 8 -23 8 -38 -2 -12 -7 -20 -8 -20 -2 0 5 -12 10
-26 10 -20 0 -25 -4 -23 -22z m79 -88 c0 -5 -5 -10 -11 -10 -5 0 -7 5 -4 10 3
6 8 10 11 10 2 0 4 -4 4 -10z m7 -82 c-3 -7 -5 -2 -5 12 0 14 2 19 5 13 2 -7
2 -19 0 -25z"/>
<path d="M1108 3263 c-2 -57 -2 -57 -5 -10 -4 41 -7 47 -26 47 -29 0 -57 -19
-39 -27 6 -2 11 -17 11 -31 -1 -17 -3 -21 -6 -9 -7 28 -23 19 -23 -13 0 -29
18 -43 22 -17 1 6 4 -13 7 -43 6 -51 8 -55 33 -58 27 -3 27 -2 24 45 -2 26 -2
36 1 21 5 -34 19 -37 24 -5 7 38 -2 157 -12 157 -5 0 -10 -26 -11 -57z"/>
<path d="M2458 3313 c-36 -9 -16 -23 32 -23 28 0 50 5 50 10 0 6 -6 10 -12 11
-7 0 -22 2 -33 3 -11 2 -28 1 -37 -1z"/>
<path d="M2300 3281 l-45 -6 -2 -137 -1 -138 58 7 c57 6 58 5 58 -21 0 -25 -2
-26 -59 -26 -52 0 -59 -2 -59 -19 0 -14 8 -21 28 -24 l27 -4 -28 -2 c-25 -1
-28 -5 -25 -28 3 -27 6 -28 61 -31 33 -2 57 -8 57 -14 0 -7 -19 -9 -60 -5
l-60 7 0 -114 0 -115 28 -4 27 -4 -27 -2 c-27 -1 -28 -3 -28 -51 0 -43 3 -50
19 -50 11 0 23 5 27 11 4 8 25 9 60 5 l54 -6 -1 65 -1 65 -47 0 c-25 0 -53 5
-61 11 -11 8 2 9 48 5 61 -6 62 -5 62 19 0 28 -17 42 -33 26 -6 -6 -28 -11
-48 -11 -30 0 -36 3 -33 18 4 14 14 16 59 14 50 -4 55 -2 55 17 0 19 -6 21
-54 21 -46 0 -54 3 -59 21 -6 21 -4 21 54 16 l59 -7 0 44 c0 26 -5 46 -12 49
-10 4 -10 6 0 6 21 2 13 29 -10 34 l-23 4 23 2 c22 1 22 1 21 171 0 155 -2
171 -19 180 -10 6 -25 9 -32 8 -7 0 -33 -4 -58 -7z m48 -38 c-10 -2 -26 -2
-35 0 -10 3 -2 5 17 5 19 0 27 -2 18 -5z m14 -55 c-5 -19 -7 -20 -10 -5 -4 21
-32 23 -32 2 0 -8 -4 -15 -10 -15 -5 0 -10 9 -10 20 0 16 7 20 34 20 31 0 33
-2 28 -22z m7 -70 c-1 -19 -2 -20 -6 -5 -3 13 -11 17 -24 14 -10 -3 -22 -1
-25 4 -3 5 9 9 25 9 26 0 31 -4 30 -22z m-54 -41 c0 -7 9 -12 20 -13 40 -2 48
-4 42 -11 -4 -3 -23 -6 -42 -6 -19 0 -35 3 -35 6 0 4 0 17 0 29 0 12 3 18 8
14 4 -4 7 -13 7 -19z m38 -524 c-13 -2 -33 -2 -45 0 -13 2 -3 4 22 4 25 0 35
-2 23 -4z"/>
<path d="M2422 3238 c2 -28 8 -34 33 -39 l30 -5 -32 -8 c-28 -6 -33 -12 -33
-37 l0 -29 85 0 c83 0 85 1 85 24 0 13 -6 27 -12 29 -10 4 -10 6 0 6 21 2 13
29 -10 34 l-23 4 23 2 c16 1 22 7 22 26 0 25 -1 25 -86 25 l-85 0 3 -32z"/>
<path d="M980 3236 c0 -14 5 -28 10 -31 6 -4 10 7 10 24 0 17 -4 31 -10 31 -5
0 -10 -11 -10 -24z"/>
<path d="M2614 3245 c-4 -8 -4 -39 0 -68 3 -28 6 -53 6 -54 0 -2 5 -3 11 -3 6
0 10 10 9 23 -6 65 -2 74 31 69 24 -4 30 -1 27 9 -3 9 -15 13 -31 11 -19 -2
-27 1 -27 12 0 20 -19 21 -26 1z"/>
<path d="M920 3214 c0 -8 11 -14 26 -14 16 0 24 5 22 13 -6 17 -48 18 -48 1z"/>
<path d="M1742 3222 c-13 -2 -21 -9 -19 -15 6 -18 44 -20 50 -3 7 19 -1 23
-31 18z"/>
<path d="M1823 3216 c2 -6 17 -14 33 -17 24 -6 22 -7 -13 -6 -24 0 -43 4 -43
9 0 4 -4 8 -9 8 -10 0 -23 -42 -15 -49 3 -3 44 -6 91 -6 88 -1 102 6 89 41 -5
13 -9 14 -21 4 -18 -15 -49 -5 -42 14 4 10 -5 13 -34 13 -25 0 -38 -4 -36 -11z"/>
<path d="M2030 3205 c0 -24 3 -25 58 -26 44 0 52 -2 35 -9 -34 -14 -28 -30 11
-30 41 0 53 14 31 36 -8 9 -13 24 -10 33 5 15 -3 18 -60 19 -63 1 -65 0 -65
-23z"/>
<path d="M1330 3190 c0 -16 5 -30 10 -30 6 0 10 14 10 30 0 17 -4 30 -10 30
-5 0 -10 -13 -10 -30z"/>
<path d="M1404 3205 c-4 -8 -12 -15 -20 -15 -23 0 -16 -27 9 -35 12 -4 25 -7
28 -7 3 1 4 -10 1 -23 -2 -14 -11 -25 -18 -25 -8 0 -14 -9 -14 -20 0 -15 7
-20 27 -20 l26 0 -23 -25 -24 -25 22 -23 c18 -17 24 -19 31 -8 6 9 11 10 15 2
13 -20 53 -13 60 12 12 46 8 57 -26 58 -32 2 -32 2 -5 6 41 6 32 36 -13 44
-33 6 -32 6 13 8 40 1 48 4 45 19 -2 12 -16 19 -53 23 l-50 6 53 1 c45 2 52 5
52 22 0 18 -5 19 -46 13 -37 -5 -48 -3 -56 10 -11 21 -27 22 -34 2z m96 -195
c0 -5 -4 -10 -10 -10 -5 0 -10 5 -10 10 0 6 5 10 10 10 6 0 10 -4 10 -10z"/>
<path d="M1977 3170 c5 -32 3 -40 -10 -40 -9 0 -21 -9 -27 -20 -8 -16 -7 -23
10 -37 11 -10 20 -23 20 -30 0 -7 12 -13 28 -14 15 0 42 -1 60 -2 24 -2 32 2
32 16 0 11 -8 17 -22 18 -17 1 -19 2 -5 6 23 6 22 49 -1 62 -22 12 -37 3 -46
-26 -5 -15 -2 -25 11 -32 10 -6 13 -11 6 -11 -21 0 -28 23 -24 88 3 56 1 62
-17 62 -18 0 -19 -5 -15 -40z m3 -70 c0 -5 -4 -10 -10 -10 -5 0 -10 5 -10 10
0 6 5 10 10 10 6 0 10 -4 10 -10z"/>
<path d="M2190 3176 c0 -41 -12 -50 -60 -48 -33 2 -35 1 -36 -31 0 -28 3 -33
18 -29 10 2 18 13 18 25 0 18 2 18 24 -6 36 -39 42 -66 18 -83 -12 -8 -23 -27
-25 -42 -3 -20 -4 -18 -3 8 1 26 -4 36 -18 38 -16 3 -18 0 -13 -25 6 -25 5
-26 -5 -6 -13 27 -36 37 -54 22 -10 -8 -14 -8 -14 0 0 14 -67 15 -75 1 -4 -6
-2 -16 3 -23 5 -7 13 -27 17 -45 9 -42 27 -36 42 14 11 38 11 38 12 9 2 -57
40 -73 66 -27 l15 27 -6 -27 c-5 -24 -3 -28 15 -28 12 0 21 5 21 11 0 8 4 8
13 1 6 -5 25 -10 40 -10 24 0 28 4 23 22 -3 11 -6 47 -6 78 0 45 -3 57 -17 61
-15 4 -15 5 2 6 18 1 20 7 17 71 -3 52 -7 70 -18 70 -9 0 -14 -11 -14 -34z
m-3 -88 c-3 -8 -6 -5 -6 6 -1 11 2 17 5 13 3 -3 4 -12 1 -19z m-110 -155 c-3
-10 -5 -2 -5 17 0 19 2 27 5 18 2 -10 2 -26 0 -35z m110 0 c-3 -10 -5 -2 -5
17 0 19 2 27 5 18 2 -10 2 -26 0 -35z"/>
<path d="M2660 3185 c-27 -32 7 -73 52 -62 30 8 41 39 22 64 -13 17 -13 17
-14 -4 0 -13 -4 -23 -10 -23 -5 0 -10 9 -10 20 0 23 -22 26 -40 5z"/>
<path d="M850 3176 c0 -12 10 -16 36 -16 45 0 42 24 -4 28 -24 2 -32 -1 -32
-12z"/>
<path d="M1645 3180 c3 -5 19 -10 36 -10 16 0 29 5 29 10 0 6 -16 10 -36 10
-21 0 -33 -4 -29 -10z"/>
<path d="M1737 3173 c-4 -3 -7 -15 -7 -25 0 -10 -6 -18 -12 -17 -28 3 -36 -2
-42 -28 -8 -29 9 -46 33 -34 9 4 44 6 78 4 60 -4 61 -4 56 19 -11 46 -63 60
-63 17 0 -10 -4 -19 -10 -19 -5 0 -9 8 -8 18 5 57 -6 85 -25 65z"/>
<path d="M988 3153 c-2 -14 -15 -16 -81 -14 -103 3 -131 -13 -125 -70 2 -21 0
-39 -4 -39 -5 0 -8 -22 -8 -50 0 -36 4 -50 14 -50 7 0 16 8 19 19 4 15 19 19
102 25 84 6 100 5 107 -8 19 -33 29 -15 26 44 -3 59 -20 82 -31 41 -4 -15 -17
-19 -77 -23 -83 -6 -106 -2 -115 20 -10 27 11 35 109 40 l96 5 0 38 c0 27 -4
39 -14 39 -8 0 -16 -7 -18 -17z"/>
<path d="M2040 3160 c0 -5 11 -10 25 -10 14 0 25 5 25 10 0 6 -11 10 -25 10
-14 0 -25 -4 -25 -10z"/>
<path d="M2750 3150 c0 -5 9 -10 20 -10 11 0 20 5 20 10 0 6 -9 10 -20 10 -11
0 -20 -4 -20 -10z"/>
<path d="M1323 3065 c2 -68 3 -70 30 -72 l27 -2 0 72 0 72 -29 0 -29 0 1 -70z"/>
<path d="M1858 3100 c4 -27 8 -30 39 -30 28 0 34 3 29 16 -3 9 -6 22 -6 30 0
9 -11 14 -33 14 -32 0 -33 -2 -29 -30z m39 -12 c-3 -8 -6 -5 -6 6 -1 11 2 17
5 13 3 -3 4 -12 1 -19z"/>
<path d="M2769 3098 c-1 -18 0 -44 1 -57 1 -13 -4 -28 -12 -33 -10 -7 -10 -11
0 -15 6 -2 12 -11 12 -19 0 -8 9 -14 20 -14 11 0 29 -5 39 -12 23 -14 55 -3
47 17 -3 8 -1 15 4 15 15 0 21 -18 9 -26 -20 -12 11 -22 52 -17 38 6 39 5 39
-26 0 -29 -2 -31 -38 -31 -34 0 -38 3 -38 23 1 16 -5 23 -21 25 -19 3 -23 -1
-23 -22 0 -22 -4 -26 -30 -26 -28 0 -30 3 -30 35 0 28 -4 35 -20 35 -18 0 -20
-7 -20 -55 l0 -55 135 0 135 0 0 55 0 55 -32 1 c-18 0 -27 3 -20 6 6 2 12 14
12 25 0 18 -5 20 -49 16 -52 -3 -75 10 -65 36 3 9 3 27 0 40 -5 19 -11 22 -31
18 -20 -3 -25 0 -25 17 0 16 -6 21 -25 21 -21 0 -25 -5 -26 -32z"/>
<path d="M2668 3113 c-50 -4 -58 -7 -58 -24 0 -16 5 -19 19 -14 15 4 20 0 23
-17 4 -33 51 -47 77 -24 20 19 25 88 6 84 -5 -1 -36 -3 -67 -5z m52 -43 c0 -5
-11 -10 -25 -10 -14 0 -25 5 -25 10 0 6 11 10 25 10 14 0 25 -4 25 -10z"/>
<path d="M2575 3105 c-5 -2 -43 -9 -82 -15 l-73 -12 0 -38 c0 -37 2 -39 38
-45 56 -10 64 -14 56 -27 -6 -9 -9 -9 -12 0 -6 18 -47 14 -65 -6 -10 -11 -17
-36 -17 -60 l0 -42 85 0 85 0 0 29 c0 26 -4 30 -32 34 l-33 4 33 1 c32 2 32 3
32 52 0 38 -4 50 -15 50 -8 0 -15 5 -15 10 0 6 7 10 15 10 10 0 15 10 15 30 0
17 -1 30 -2 29 -2 0 -7 -2 -13 -4z"/>
<path d="M707 3067 c-9 -7 -9 -10 1 -14 14 -6 17 -93 2 -93 -5 0 -10 16 -10
36 0 28 -4 35 -17 32 -14 -3 -17 -12 -15 -46 2 -27 -1 -42 -8 -42 -7 0 -10 8
-7 20 5 19 -17 48 -26 33 -4 -7 -3 -36 2 -65 0 -5 17 -8 36 -8 26 0 35 4 35
16 0 13 3 14 15 4 31 -26 45 -5 45 68 0 61 -2 68 -20 68 -12 0 -26 -4 -33 -9z"/>
<path d="M910 3065 c0 -16 9 -19 34 -9 25 9 19 24 -9 24 -16 0 -25 -6 -25 -15z"/>
<path d="M1057 3053 c-8 -13 -2 -201 6 -209 17 -18 21 5 19 129 -2 76 -11 104
-25 80z"/>
<path d="M1785 3051 c-7 -12 -5 -13 25 -14 11 -1 21 3 23 8 3 14 -40 19 -48 6z"/>
<path d="M1850 3050 c0 -5 11 -10 25 -10 14 0 25 5 25 10 0 6 -11 10 -25 10
-14 0 -25 -4 -25 -10z"/>
<path d="M1910 3050 c0 -5 11 -10 25 -10 14 0 25 5 25 10 0 6 -11 10 -25 10
-14 0 -25 -4 -25 -10z"/>
<path d="M2110 3035 c0 -10 7 -15 18 -13 21 4 19 22 -2 26 -10 2 -16 -3 -16
-13z"/>
<path d="M2610 3010 c0 -29 4 -40 15 -40 11 0 15 11 15 40 0 29 -4 40 -15 40
-11 0 -15 -11 -15 -40z"/>
<path d="M2913 3043 c-36 -7 -27 -23 13 -23 23 0 34 4 32 12 -5 14 -15 17 -45
11z"/>
<path d="M1711 3010 c-13 -11 -21 -26 -18 -34 6 -14 75 -28 92 -18 14 9 49 7
65 -3 9 -5 15 -4 18 3 3 9 9 9 23 1 35 -18 56 19 40 70 0 2 -12 -4 -26 -13
-14 -9 -25 -12 -25 -6 0 17 -21 11 -42 -12 -11 -13 -17 -18 -14 -11 7 13 -3
43 -14 43 -5 0 -22 -12 -39 -26 -17 -14 -37 -24 -43 -22 -8 3 -4 9 10 17 24
13 30 31 10 31 -7 -1 -24 -10 -37 -20z"/>
<path d="M2654 3011 c-2 -2 -4 -12 -4 -22 0 -15 7 -17 38 -13 40 4 35 0 -10
-10 -19 -4 -28 -13 -28 -26 0 -13 -7 -20 -20 -20 -14 0 -20 -7 -20 -23 0 -21
4 -23 33 -20 17 2 26 0 20 -3 -16 -7 -17 -46 -1 -62 7 -7 21 -12 33 -12 37 0
48 16 49 71 l1 54 -45 -2 c-36 0 -38 0 -10 4 45 6 55 16 55 57 0 32 -1 33 -43
32 -24 -1 -46 -3 -48 -5z m69 -151 c-4 -13 -14 -20 -30 -20 -20 0 -23 3 -14
13 6 8 8 17 4 20 -3 4 5 7 19 7 21 0 25 -4 21 -20z"/>
<path d="M1192 3000 c-24 -10 -43 -46 -35 -67 4 -9 -5 -13 -26 -13 -29 0 -31
-3 -31 -34 l0 -34 75 5 c80 6 107 -9 35 -21 -52 -8 -75 -55 -54 -110 7 -19 44
-22 44 -3 0 8 3 9 8 1 4 -6 16 -16 27 -22 17 -10 13 -12 -30 -13 -98 -2 -100
-3 -103 -27 -4 -27 22 -40 45 -21 14 12 15 11 9 -8 -4 -13 -4 -28 0 -35 5 -7
7 -28 5 -46 l-3 -33 46 6 c31 5 46 4 46 -4 0 -6 -16 -11 -35 -11 -44 0 -70
-35 -61 -82 3 -18 6 -72 5 -120 0 -82 1 -88 20 -88 12 0 21 5 21 10 0 6 20 20
45 32 60 29 61 58 5 83 -46 21 -66 40 -51 49 5 4 12 2 16 -4 9 -14 48 -13 63
2 8 8 12 47 12 111 l0 99 -39 -7 c-34 -6 -39 -4 -44 15 -5 21 -3 22 39 15 l44
-6 0 40 c0 24 -5 41 -11 41 -8 0 -8 4 -1 13 12 14 16 246 4 263 -8 13 -47 34
-59 33 -4 0 -18 -4 -31 -9z m58 -70 c0 -5 -11 -10 -25 -10 -14 0 -25 5 -25 10
0 6 11 10 25 10 14 0 25 -4 25 -10z"/>
<path d="M1120 2965 c0 -14 5 -25 10 -25 6 0 10 11 10 25 0 14 -4 25 -10 25
-5 0 -10 -11 -10 -25z"/>
<path d="M1317 2973 c-4 -3 -7 -24 -7 -45 0 -31 3 -38 20 -38 17 0 20 7 20 45
0 43 -14 58 -33 38z"/>
<path d="M1400 2955 c0 -8 -9 -15 -20 -15 -13 0 -18 -5 -14 -15 4 -8 15 -15
25 -15 22 0 24 -12 8 -42 -9 -18 -8 -24 10 -37 14 -11 19 -23 15 -38 -7 -24
-13 -27 -38 -17 -12 4 -13 10 -4 23 13 21 -1 72 -22 79 -7 3 -10 0 -6 -7 4 -6
3 -11 -3 -11 -5 0 -11 5 -13 12 -2 6 -10 8 -17 4 -7 -5 -10 -14 -7 -22 3 -8 0
-14 -5 -14 -7 0 -9 -9 -4 -22 4 -13 7 -49 6 -80 -1 -49 2 -58 17 -59 14 0 14
-2 2 -6 -26 -10 -29 -22 -21 -110 1 -6 11 -14 24 -16 l22 -4 -22 -2 c-29 -1
-31 -31 -2 -31 12 0 23 -8 26 -20 4 -16 14 -20 45 -20 32 0 39 3 34 15 -4 10
1 15 14 15 13 0 20 7 20 20 0 11 -4 20 -10 20 -5 0 -10 -4 -10 -10 0 -5 -13
-10 -29 -10 -16 0 -31 -6 -34 -12 -3 -7 -4 -3 -4 8 1 14 6 20 14 17 16 -6 19
72 3 82 -6 4 -10 -9 -10 -32 0 -21 -4 -33 -8 -27 -4 7 -18 14 -32 17 l-25 4
26 2 c32 1 37 19 34 118 -1 37 0 60 2 51 4 -14 16 -18 56 -20 44 -1 46 -2 14
-5 -37 -4 -38 -5 -35 -41 3 -37 4 -37 51 -40 l47 -3 0 60 c0 60 -1 61 -27 62
-16 1 -31 1 -35 0 -5 0 -8 4 -8 9 0 6 20 10 45 10 33 0 45 4 45 14 0 8 -4 17
-9 20 -5 3 -7 24 -4 47 l6 41 -39 -2 c-60 -3 -65 2 -9 9 42 5 51 10 53 29 3
22 -12 30 -23 12 -10 -16 -72 -12 -79 5 -3 8 -12 15 -21 15 -8 0 -15 -7 -15
-15z m41 -98 c-10 -9 -11 -8 -5 6 3 10 9 15 12 12 3 -3 0 -11 -7 -18z m45 -12
c0 -14 -4 -25 -8 -25 -10 0 -10 13 -2 34 9 23 12 20 10 -9z m4 -165 c0 -5 -9
-10 -20 -10 -11 0 -20 5 -20 10 0 6 9 10 20 10 11 0 20 -4 20 -10z"/>
<path d="M833 2920 c-69 -42 -64 -103 11 -140 80 -38 177 -14 200 52 28 79
-123 142 -211 88z m156 -41 c33 -12 39 -27 19 -47 -14 -14 -165 -16 -186 -3
-23 14 -9 45 23 52 49 11 110 10 144 -2z"/>
<path d="M915 2871 c-3 -2 -5 -11 -5 -18 0 -17 71 -14 77 3 4 11 -63 25 -72
15z"/>
<path d="M1912 2929 c6 -18 58 -21 58 -3 0 9 -11 14 -31 14 -19 0 -29 -5 -27
-11z"/>
<path d="M1824 2916 c-6 -16 -55 -17 -67 -1 -5 6 -13 3 -21 -8 -8 -10 -16 -15
-19 -10 -3 4 -36 7 -74 6 -86 -1 -80 0 -87 -19 -14 -37 8 -41 208 -43 206 -2
212 0 195 47 -9 24 -24 29 -34 12 -5 -8 -11 -7 -20 0 -8 7 -18 9 -24 6 -5 -4
-16 1 -24 9 -19 19 -26 19 -33 1z m3 -48 c-3 -8 -6 -5 -6 6 -1 11 2 17 5 13 3
-3 4 -12 1 -19z m30 0 c-3 -8 -6 -5 -6 6 -1 11 2 17 5 13 3 -3 4 -12 1 -19z
m-252 2 c3 -5 -1 -10 -9 -10 -9 0 -16 5 -16 10 0 6 4 10 9 10 6 0 13 -4 16
-10z"/>
<path d="M2920 2915 c0 -9 9 -15 25 -15 16 0 25 6 25 15 0 9 -9 15 -25 15 -16
0 -25 -6 -25 -15z"/>
<path d="M585 2893 c5 -23 4 -25 -9 -14 -36 30 -62 -15 -29 -51 16 -18 16 -18
-1 -12 -14 5 -17 3 -14 -12 4 -23 37 -31 49 -12 6 9 9 10 9 1 0 -16 112 -15
122 1 12 18 9 73 -4 83 -7 6 -32 10 -56 9 -34 -1 -42 2 -42 17 0 9 -7 17 -16
17 -13 0 -15 -6 -9 -27z m44 -40 c0 -5 -4 -17 -9 -28 -8 -18 -9 -17 -9 8 -1
15 4 27 9 27 6 0 10 -3 9 -7z m-41 -28 c-3 -3 -9 2 -12 12 -6 14 -5 15 5 6 7
-7 10 -15 7 -18z m72 0 c0 -8 -4 -15 -10 -15 -5 0 -7 7 -4 15 4 8 8 15 10 15
2 0 4 -7 4 -15z"/>
<path d="M740 2865 c0 -42 3 -55 15 -55 12 0 15 13 15 55 0 42 -3 55 -15 55
-12 0 -15 -13 -15 -55z"/>
<path d="M2170 2880 c0 -5 16 -10 35 -10 19 0 35 5 35 10 0 6 -16 10 -35 10
-19 0 -35 -4 -35 -10z"/>
<path d="M3042 2871 c4 -19 48 -24 48 -6 0 7 -11 15 -25 18 -20 3 -25 1 -23
-12z"/>
<path d="M1990 2859 c0 -18 15 -24 50 -21 33 3 166 3 179 0 7 -2 16 3 18 10 3
8 -9 12 -41 12 -24 0 -47 4 -50 8 -3 5 -39 9 -81 9 -66 0 -75 -2 -75 -18z"/>
<path d="M2602 2813 c0 -24 4 -46 9 -49 5 -3 9 -14 9 -24 0 -10 4 -21 9 -24 5
-4 9 27 10 68 1 68 -1 75 -19 73 -16 -1 -19 -8 -18 -44z"/>
<path d="M2432 2830 c-17 -27 -15 -60 5 -82 15 -17 15 -19 0 -36 -20 -22 -21
-60 -3 -84 16 -21 124 -26 144 -6 15 15 16 80 1 95 -8 8 -8 17 0 31 15 27 14
75 -1 90 -7 7 -27 12 -45 12 -30 0 -33 -3 -33 -30 0 -25 -4 -30 -22 -29 -17 1
-19 2 -5 6 10 3 17 14 17 29 0 18 -5 24 -23 24 -12 0 -28 -9 -35 -20z m101
-167 c-13 -2 -35 -2 -50 0 -16 2 -5 4 22 4 28 0 40 -2 28 -4z"/>
<path d="M1075 2829 c-3 -4 -1 -18 4 -31 4 -12 5 -32 0 -43 -4 -11 -8 -14 -8
-7 -1 6 -8 12 -17 12 -11 0 -14 -5 -10 -16 3 -9 6 -33 6 -55 0 -21 5 -39 10
-39 6 0 10 16 10 35 0 23 5 35 13 34 52 -7 57 -2 57 60 l0 60 -30 -1 c-17 -1
-33 -4 -35 -9z"/>
<path d="M1550 2806 c0 -36 17 -41 22 -6 3 20 0 30 -9 30 -7 0 -13 -11 -13
-24z"/>
<path d="M1598 2819 c-21 -12 -24 -39 -5 -39 7 0 18 5 25 12 9 9 15 9 23 1 8
-8 1 -14 -25 -23 -19 -6 -38 -20 -41 -31 -11 -33 12 -48 70 -48 l54 1 -6 52
c-7 72 -47 103 -95 75z m46 -84 c-6 -16 -24 -21 -24 -7 0 11 11 22 21 22 5 0
6 -7 3 -15z"/>
<path d="M1717 2818 c-9 -5 -9 -10 1 -20 14 -14 16 -78 2 -78 -5 0 -10 -7 -10
-15 0 -11 11 -15 40 -15 29 0 40 4 40 15 0 8 -4 15 -10 15 -5 0 -10 16 -10 35
0 33 2 35 25 29 15 -4 25 -2 25 5 0 6 5 11 10 11 6 0 10 -18 10 -40 0 -22 -4
-40 -10 -40 -5 0 -10 -7 -10 -15 0 -11 12 -15 45 -15 33 0 45 4 45 15 0 8 -6
15 -12 15 -8 0 -13 14 -13 34 0 32 2 34 28 29 23 -5 27 -2 27 16 0 11 -3 21
-7 22 -35 5 -207 3 -216 -3z"/>
<path d="M1968 2823 c-21 -5 -24 -43 -4 -43 8 0 18 5 21 10 7 12 25 13 25 2 0
-5 -16 -16 -35 -25 -36 -17 -46 -46 -22 -65 19 -16 117 -13 117 4 0 8 -4 14
-10 14 -5 0 -10 20 -10 45 0 56 -24 73 -82 58z m42 -88 c0 -8 -7 -15 -15 -15
-16 0 -20 12 -8 23 11 12 23 8 23 -8z"/>
<path d="M2924 2816 c-3 -8 -4 -23 -2 -33 3 -16 15 -18 101 -20 53 0 97 3 97
8 0 5 -5 9 -10 9 -7 0 -7 6 0 19 5 11 10 22 10 25 0 3 -43 6 -95 6 -74 0 -97
-3 -101 -14z"/>
<path d="M2072 2813 c2 -5 16 -33 32 -64 32 -63 30 -89 -9 -89 -23 0 -24 -2
-15 -20 13 -25 42 -26 62 -2 8 9 27 47 42 85 16 37 32 70 37 73 20 12 7 24
-27 24 -31 0 -35 -3 -29 -20 3 -11 3 -30 -1 -42 l-6 -21 -14 24 c-7 13 -11 32
-8 42 4 14 -1 17 -31 17 -20 0 -35 -3 -33 -7z"/>
<path d="M2786 2799 c-21 -17 -26 -29 -26 -65 l0 -44 135 0 135 0 0 25 c0 24
-3 25 -60 25 -47 0 -60 3 -60 15 0 24 -46 65 -73 65 -13 0 -36 -9 -51 -21z
m72 -46 c2 -9 -7 -13 -27 -13 -30 0 -39 9 -24 24 11 10 46 3 51 -11z"/>
<path d="M450 2783 c0 -8 13 -13 35 -13 21 0 35 5 35 13 0 7 -14 12 -35 12
-22 1 -35 -4 -35 -12z"/>
<path d="M2690 2791 c-34 -6 -35 -7 -35 -53 0 -41 -3 -47 -20 -45 -12 1 -21
-5 -23 -17 -3 -15 0 -18 17 -13 12 3 21 2 21 -1 0 -4 21 -7 48 -7 l47 0 0 73
c0 42 -4 71 -10 71 -5 -1 -26 -4 -45 -8z m35 -41 c-3 -5 -15 -10 -26 -10 -10
0 -19 5 -19 10 0 6 12 10 26 10 14 0 23 -4 19 -10z m-7 -47 c-10 -2 -26 -2
-35 0 -10 3 -2 5 17 5 19 0 27 -2 18 -5z"/>
<path d="M3138 2768 c9 -9 15 -9 24 0 9 9 7 12 -12 12 -19 0 -21 -3 -12 -12z"/>
<path d="M1006 2754 c-6 -15 -20 -16 -116 -10 l-110 6 0 -50 c0 -52 12 -64 30
-30 9 18 21 20 99 20 72 0 90 -3 95 -16 3 -9 6 -17 6 -18 0 -1 -16 0 -35 2
-27 3 -35 1 -35 -12 0 -10 9 -16 23 -16 29 0 51 -15 43 -29 -4 -7 -40 -11 -91
-11 -79 0 -84 1 -87 22 -2 13 -11 24 -22 26 -16 3 -18 0 -12 -22 6 -26 6 -26
-34 -20 -33 5 -40 4 -40 -10 0 -9 6 -16 13 -16 7 0 28 -13 47 -29 35 -29 35
-29 8 -24 -31 6 -38 -10 -12 -25 14 -8 14 -12 3 -30 -32 -52 58 -119 147 -109
78 8 115 51 100 113 -10 38 -96 69 -96 35 0 -5 15 -12 32 -17 35 -10 47 -36
28 -59 -16 -20 -149 -21 -175 -2 -25 19 -13 33 45 52 60 20 65 35 10 35 -31 0
-40 4 -40 18 0 15 9 17 84 14 75 -3 87 -1 105 17 20 20 28 61 14 74 -3 4 -5
36 -4 72 2 62 -9 85 -23 49z"/>
<path d="M440 2740 c-11 -11 -20 -33 -20 -51 0 -22 -4 -30 -13 -26 -20 8 -46
-11 -30 -21 8 -5 12 -25 10 -48 -1 -29 2 -39 13 -39 10 0 16 11 17 35 1 19 2
40 2 45 1 6 51 10 128 10 114 0 128 2 131 18 3 15 -5 17 -58 17 -67 0 -73 14
-11 25 49 8 80 29 65 44 -7 8 -25 7 -62 -4 -47 -14 -54 -14 -68 0 -22 22 -80
19 -104 -5z m88 -42 c3 -15 -4 -18 -32 -18 -34 0 -47 15 -29 34 13 13 58 1 61
-16z"/>
<path d="M1530 2710 c0 -38 4 -50 15 -50 9 0 15 -9 15 -25 0 -24 10 -32 23
-19 3 3 51 6 106 7 93 0 117 6 91 22 -6 4 -7 11 -4 17 4 7 10 5 15 -4 12 -22
149 -25 149 -4 0 10 -15 16 -52 19 -95 8 -160 8 -155 0 3 -5 -18 -9 -46 -11
-29 -1 -61 -2 -72 -3 -52 -4 -55 -1 -55 51 0 38 -4 50 -15 50 -11 0 -15 -12
-15 -50z"/>
<path d="M1780 2750 c0 -5 9 -10 20 -10 11 0 20 5 20 10 0 6 -9 10 -20 10 -11
0 -20 -4 -20 -10z"/>
<path d="M710 2731 c-7 -15 -6 -24 6 -36 19 -18 33 -16 48 7 7 12 6 21 -3 32
-18 22 -38 20 -51 -3z"/>
<path d="M3062 2738 c-7 -7 -12 -22 -12 -35 0 -22 4 -23 65 -23 61 0 65 1 65
23 0 34 -19 47 -65 47 -23 0 -46 -5 -53 -12z"/>
<path d="M3190 2685 c0 -14 5 -25 10 -25 6 0 10 11 10 25 0 14 -4 25 -10 25
-5 0 -10 -11 -10 -25z"/>
<path d="M2196 2653 c3 -65 2 -63 24 -63 18 0 20 7 20 55 0 51 -2 55 -23 55
-22 0 -23 -4 -21 -47z"/>
<path d="M847 2673 c-11 -10 -8 -63 3 -63 6 0 10 16 10 35 0 36 -2 40 -13 28z"/>
<path d="M904 2658 c3 -13 5 -29 5 -35 2 -30 21 -10 21 22 0 24 -5 35 -15 35
-10 0 -14 -7 -11 -22z"/>
<path d="M1950 2668 c0 -26 16 -34 58 -30 33 3 42 8 42 23 0 16 -8 19 -50 19
-33 0 -50 -4 -50 -12z"/>
<path d="M2760 2656 c0 -18 9 -28 38 -39 l37 -15 -37 -16 c-26 -11 -38 -23
-38 -36 0 -26 6 -25 86 5 43 16 87 25 125 25 51 0 59 2 59 19 0 17 -9 20 -67
23 -42 2 -94 14 -135 30 l-68 27 0 -23z"/>
<path d="M2872 2668 c7 -20 58 -23 58 -4 0 11 -10 16 -31 16 -20 0 -29 -4 -27
-12z"/>
<path d="M2945 2670 c-9 -15 16 -32 54 -37 41 -6 43 -5 39 18 -3 21 -8 24 -46
24 -24 0 -45 -2 -47 -5z"/>
<path d="M694 2655 c-7 -18 3 -35 22 -35 8 0 14 10 14 25 0 27 -27 35 -36 10z"/>
<path d="M740 2645 c0 -14 5 -25 10 -25 6 0 10 11 10 25 0 14 -4 25 -10 25 -5
0 -10 -11 -10 -25z"/>
<path d="M870 2645 c0 -14 5 -25 10 -25 6 0 10 11 10 25 0 14 -4 25 -10 25 -5
0 -10 -11 -10 -25z"/>
<path d="M3050 2645 c0 -23 3 -25 50 -25 40 0 48 -3 44 -15 -4 -10 -20 -15
-50 -15 -32 0 -44 -4 -44 -15 0 -11 12 -15 50 -15 40 0 48 -3 44 -15 -4 -10
-20 -15 -51 -15 -37 0 -44 -3 -41 -17 2 -10 16 -21 33 -24 l30 -7 -32 -1 c-25
-1 -33 -5 -33 -20 0 -22 18 -31 63 -32 18 0 26 -3 20 -6 -7 -2 -13 -11 -13
-19 0 -8 -4 -14 -10 -14 -5 0 -10 7 -10 16 0 10 -7 14 -22 12 -17 -2 -23 -10
-23 -28 0 -24 3 -25 60 -25 l60 0 0 47 c0 30 3 44 9 38 13 -13 53 -13 61 0 3
5 12 7 20 3 12 -4 15 6 15 49 0 60 -6 74 -26 57 -10 -8 -12 -5 -8 14 3 21 0
25 -26 29 l-30 5 -1 -56 c-1 -31 -1 -63 0 -71 1 -12 0 -12 -7 -2 -5 7 -7 25
-4 39 3 15 -1 29 -9 34 -9 6 -10 9 -2 9 7 0 12 20 12 55 0 47 -3 55 -19 55
-10 0 -21 -6 -23 -12 -4 -10 -6 -10 -6 0 -1 6 -7 12 -15 12 -8 0 -17 -6 -19
-12 -4 -10 -6 -10 -6 0 -1 6 -10 12 -21 12 -15 0 -20 -7 -20 -25z m197 -131
c-3 -3 -12 -4 -19 -1 -8 3 -5 6 6 6 11 1 17 -2 13 -5z m-100 -20 c-3 -3 -12
-4 -19 -1 -8 3 -5 6 6 6 11 1 17 -2 13 -5z m108 -3 c3 -5 1 -12 -5 -16 -5 -3
-10 1 -10 9 0 18 6 21 15 7z"/>
<path d="M3190 2636 c0 -11 9 -16 26 -16 31 0 28 23 -4 28 -15 2 -22 -2 -22
-12z"/>
<path d="M2695 2609 c5 -22 4 -29 -4 -25 -6 4 -11 16 -11 26 0 16 -6 19 -32
17 -29 -2 -33 -6 -35 -35 -2 -21 2 -35 12 -38 13 -5 13 -8 0 -21 -21 -21 -19
-30 13 -41 24 -9 24 -11 5 -11 -31 -1 -38 -20 -11 -30 17 -7 19 -10 6 -10 -11
-1 -18 -9 -18 -21 0 -16 7 -20 35 -20 31 0 35 3 36 28 0 15 3 21 6 15 2 -7 13
-13 24 -13 21 0 21 -1 21 90 0 122 1 120 -28 120 -23 0 -25 -3 -19 -31z m2
-76 c-3 -10 -5 -4 -5 12 0 17 2 24 5 18 2 -7 2 -21 0 -30z m0 -58 c-4 -8 -12
-15 -19 -14 -10 0 -10 2 0 6 6 2 12 12 12 21 0 8 3 13 6 9 4 -3 4 -13 1 -22z"/>
<path d="M340 2595 c0 -25 4 -35 13 -32 6 2 12 16 12 32 0 16 -6 30 -12 33 -9
2 -13 -8 -13 -33z"/>
<path d="M490 2595 c0 -35 13 -47 23 -21 7 18 -3 56 -14 56 -5 0 -9 -16 -9
-35z"/>
<path d="M590 2599 c0 -38 24 -35 28 4 2 19 -1 27 -12 27 -11 0 -16 -10 -16
-31z"/>
<path d="M1420 2608 c0 -36 14 -49 57 -55 39 -5 40 -4 47 28 4 22 2 35 -6 41
-24 15 -35 8 -30 -17 3 -18 0 -25 -12 -25 -10 0 -16 9 -16 25 0 18 -5 25 -20
25 -14 0 -20 -7 -20 -22z"/>
<path d="M430 2565 l0 -55 125 0 125 0 0 55 c0 48 -2 55 -20 55 -16 0 -20 -7
-20 -35 0 -33 -2 -35 -35 -35 -28 0 -35 4 -35 19 0 19 -23 35 -34 24 -3 -4 -6
-15 -6 -25 0 -13 -8 -18 -30 -18 -28 0 -30 3 -30 35 0 28 -4 35 -20 35 -18 0
-20 -7 -20 -55z"/>
<path d="M1075 2608 c-3 -7 -3 -30 -2 -50 2 -26 -1 -38 -10 -38 -15 0 -18 -27
-3 -32 6 -2 11 -25 12 -51 1 -53 8 -62 43 -53 19 5 23 13 23 41 0 29 -4 35
-21 36 l-22 0 22 9 c18 8 21 16 21 69 -1 53 -3 61 -19 61 -11 0 -19 5 -19 10
0 14 -20 12 -25 -2z"/>
<path d="M1540 2590 c0 -5 16 -10 35 -10 19 0 35 5 35 10 0 6 -16 10 -35 10
-19 0 -35 -4 -35 -10z"/>
<path d="M2158 2593 c-29 -7 -20 -23 13 -23 19 0 29 4 27 12 -5 14 -17 17 -40
11z"/>
<path d="M2435 2581 c-8 -10 -15 -36 -15 -59 l0 -42 85 0 85 0 0 29 c0 26 -4
30 -32 34 l-33 4 33 1 c27 2 32 6 32 26 0 24 -2 25 -70 24 -52 0 -73 -5 -85
-17z m52 -37 c-3 -3 -12 -4 -19 -1 -8 3 -5 6 6 6 11 1 17 -2 13 -5z"/>
<path d="M2214 2558 c3 -13 6 -29 6 -36 0 -7 5 -10 10 -7 17 11 12 65 -6 65
-12 0 -15 -6 -10 -22z"/>
<path d="M700 2534 c0 -14 4 -23 10 -19 6 3 10 15 10 26 0 10 -4 19 -10 19 -5
0 -10 -12 -10 -26z"/>
<path d="M327 2540 c9 -10 10 -17 2 -27 -7 -7 -8 -13 -3 -13 5 0 9 -33 9 -72
l0 -73 35 0 35 0 3 60 c2 59 2 60 -30 75 l-33 15 33 3 c31 3 48 32 18 32 -7 0
-29 3 -47 6 -28 5 -32 4 -22 -6z m53 -150 c0 -5 -4 -10 -10 -10 -5 0 -10 5
-10 10 0 6 5 10 10 10 6 0 10 -4 10 -10z"/>
<path d="M2878 2543 c-11 -3 -18 -14 -18 -29 0 -24 1 -24 90 -24 89 0 90 0 90
25 0 21 -5 25 -32 26 -18 0 -51 2 -73 3 -22 2 -48 1 -57 -1z"/>
<path d="M2760 2460 c0 -53 2 -60 20 -60 13 0 20 7 20 20 0 19 7 20 115 20
108 0 115 1 115 20 0 19 -7 20 -115 20 -108 0 -115 1 -115 20 0 13 -7 20 -20
20 -18 0 -20 -7 -20 -60z"/>
<path d="M2820 2505 c0 -8 7 -15 15 -15 8 0 15 7 15 15 0 8 -7 15 -15 15 -8 0
-15 -7 -15 -15z"/>
<path d="M658 2493 c-61 -5 -63 -23 -2 -23 27 0 43 -4 39 -10 -3 -5 -1 -10 6
-10 8 0 8 -4 -2 -16 -9 -12 -10 -20 -2 -33 9 -15 7 -17 -18 -13 -17 3 -29 0
-29 -7 0 -6 9 -11 20 -11 18 0 25 -10 21 -32 0 -5 15 -8 34 -8 l35 0 0 54 c0
34 -5 56 -12 59 -10 4 -10 6 0 6 6 1 12 9 12 18 0 9 -3 14 -6 10 -4 -3 -13 0
-21 8 -8 8 -17 14 -21 13 -4 -1 -28 -3 -54 -5z m85 -80 c-7 -2 -19 -2 -25 0
-7 3 -2 5 12 5 14 0 19 -2 13 -5z m1 -41 c2 -4 -4 -8 -14 -8 -10 0 -16 4 -14
8 3 4 9 8 14 8 5 0 11 -4 14 -8z"/>
<path d="M1307 2494 c-4 -4 -7 -38 -7 -76 0 -62 2 -68 20 -68 19 0 21 5 18 72
-3 65 -13 89 -31 72z"/>
<path d="M280 2443 c0 -27 -3 -58 -6 -70 -5 -19 -2 -23 18 -23 24 0 25 3 25
63 -1 56 -8 76 -29 77 -5 0 -8 -21 -8 -47z"/>
<path d="M422 2433 c2 -47 7 -58 21 -61 12 -3 20 4 24 17 5 20 12 21 109 21
97 0 104 1 104 20 0 19 -7 20 -105 20 -98 0 -105 1 -105 20 0 15 -7 20 -25 20
-25 0 -26 -2 -23 -57z"/>
<path d="M2330 2424 c0 -56 2 -64 19 -64 15 0 18 -7 17 -42 -1 -37 2 -43 20
-46 18 -3 22 3 25 30 6 49 0 80 -14 71 -9 -5 -9 -3 0 8 10 12 17 61 14 96 -1
7 -17 12 -41 11 l-40 0 0 -64z m37 9 c-3 -10 -5 -4 -5 12 0 17 2 24 5 18 2 -7
2 -21 0 -30z"/>
<path d="M2270 2466 c0 -8 10 -13 25 -13 15 0 25 5 25 13 0 8 -10 14 -25 14
-15 0 -25 -6 -25 -14z"/>
<path d="M2433 2451 c-7 -12 -13 -37 -13 -56 l0 -35 85 0 85 0 0 30 c0 24 -4
30 -23 30 -14 0 -26 9 -32 23 -14 31 -84 37 -102 8z m60 -38 c-7 -2 -19 -2
-25 0 -7 3 -2 5 12 5 14 0 19 -2 13 -5z"/>
<path d="M2552 2453 c2 -9 13 -18 26 -19 16 -3 22 1 22 16 0 15 -7 20 -26 20
-18 0 -25 -5 -22 -17z"/>
<path d="M897 2454 c-16 -17 -4 -24 39 -24 31 0 44 4 42 12 -5 14 -70 23 -81
12z"/>
<path d="M1350 2440 c0 -5 9 -10 20 -10 11 0 20 5 20 10 0 6 -9 10 -20 10 -11
0 -20 -4 -20 -10z"/>
<path d="M3300 2442 c0 -5 -10 -9 -22 -9 -84 -1 -88 -2 -88 -27 0 -23 3 -25
51 -24 28 0 53 -3 56 -6 4 -3 -10 -6 -30 -6 -20 0 -37 -4 -37 -10 0 -6 27 -10
60 -10 33 0 60 4 60 10 0 6 -10 10 -22 10 -13 0 -18 4 -12 8 14 10 12 64 -3
70 -7 2 -13 -1 -13 -6z"/>
<path d="M2700 2405 c0 -8 9 -15 20 -15 11 0 20 7 20 15 0 8 -9 15 -20 15 -11
0 -20 -7 -20 -15z"/>
<path d="M3010 2379 c0 -52 24 -48 28 4 2 28 -1 37 -12 37 -12 0 -16 -11 -16
-41z"/>
<path d="M2820 2380 c0 -30 14 -40 24 -17 5 10 7 10 12 0 9 -20 133 -17 140 2
7 18 -12 45 -32 45 -8 0 -14 -9 -14 -20 0 -11 -4 -20 -10 -20 -5 0 -9 3 -9 8
5 27 -4 32 -56 32 -54 0 -55 0 -55 -30z"/>
<path d="M480 2375 c0 -9 9 -15 25 -15 16 0 25 6 25 15 0 9 -9 15 -25 15 -16
0 -25 -6 -25 -15z"/>
<path d="M2658 2382 c-58 -5 -45 -22 17 -22 30 0 55 4 55 9 0 12 -27 17 -72
13z"/>
<path d="M2750 2350 c0 -11 -7 -20 -15 -20 -8 0 -15 -7 -15 -15 0 -8 6 -15 13
-15 9 0 12 -10 9 -30 -10 -69 30 -116 77 -91 28 16 28 41 -1 38 -20 -2 -23 3
-26 39 -3 40 -2 42 28 46 38 6 40 4 40 -46 0 -23 4 -46 8 -52 13 -19 53 -36
70 -29 9 4 54 6 100 5 68 -1 82 2 82 14 0 9 -4 16 -10 16 -5 0 -10 20 -10 45
0 25 5 45 10 45 6 0 10 -4 10 -10 0 -5 9 -10 20 -10 15 0 20 7 20 24 0 26 -30
43 -52 30 -7 -4 -27 -7 -45 -6 -24 2 -33 -2 -33 -13 0 -8 5 -15 10 -15 15 0
12 -87 -2 -92 -30 -11 -38 4 -38 69 0 55 -2 64 -16 59 -9 -3 -22 -6 -30 -6 -8
0 -14 -7 -14 -15 0 -8 5 -15 10 -15 17 0 12 -77 -6 -84 -27 -10 -34 3 -34 63
l0 57 -60 -4 c-56 -4 -60 -3 -60 17 0 14 -6 21 -20 21 -13 0 -20 -7 -20 -20z"/>
<path d="M240 2335 c0 -14 5 -25 10 -25 6 0 10 11 10 25 0 14 -4 25 -10 25 -5
0 -10 -11 -10 -25z"/>
<path d="M991 2343 c-8 -14 -25 -18 -96 -18 -102 0 -120 -13 -112 -77 3 -21 1
-38 -4 -38 -6 0 -9 -21 -7 -47 2 -32 7 -47 16 -46 8 2 12 -14 12 -57 0 -61 13
-79 29 -37 8 20 17 22 82 25 85 4 124 -13 100 -42 -11 -13 -34 -16 -117 -16
l-104 0 0 -31 0 -32 -55 6 c-50 5 -70 -3 -45 -18 5 -3 9 -22 8 -42 -2 -45 29
-73 78 -73 24 0 34 -5 34 -15 0 -8 5 -15 10 -15 6 0 13 7 16 15 5 12 25 15 90
15 66 0 86 -3 90 -15 14 -34 24 -11 24 53 l-1 67 -22 -27 c-21 -26 -28 -28
-100 -28 -70 0 -77 2 -77 20 0 11 -7 20 -15 20 -14 0 -19 -12 -16 -32 1 -9
-41 -10 -63 -2 -38 14 7 55 51 46 6 -1 14 7 18 18 6 18 15 20 91 20 47 0 94 5
105 11 27 14 42 55 29 80 -8 14 -7 19 1 19 8 0 9 24 4 88 -5 48 -8 95 -9 105
-1 26 -23 20 -30 -8 -6 -24 -10 -25 -84 -25 -84 0 -120 14 -109 44 6 16 33 20
157 21 l45 0 3 43 c3 43 -10 55 -27 25z m23 -192 c12 -13 15 -27 11 -41 -6
-20 -11 -21 -98 -14 -71 5 -96 11 -110 25 -24 26 -13 39 33 39 33 0 37 -3 33
-20 -5 -18 0 -20 46 -20 39 0 51 4 51 15 0 9 -10 20 -22 25 -21 8 -21 9 8 9
18 1 38 -7 48 -18z"/>
<path d="M1030 2350 c0 -5 6 -10 14 -10 14 0 28 -57 16 -65 -3 -2 -4 -22 -2
-44 4 -40 5 -41 43 -41 35 0 39 3 39 25 0 14 -6 25 -12 25 -9 0 -10 2 -2 8 7
4 12 19 12 34 0 23 -5 28 -32 31 l-31 4 33 1 c25 2 32 6 32 22 0 18 -7 20 -55
20 -30 0 -55 -4 -55 -10z"/>
<path d="M422 2333 c2 -14 15 -19 58 -21 l55 -4 -55 -17 c-35 -11 -56 -23 -58
-34 -3 -15 9 -17 128 -17 120 0 131 2 128 18 -2 13 -15 18 -53 20 l-50 4 50
16 c31 11 51 24 53 35 3 15 -8 17 -128 17 -120 0 -131 -2 -128 -17z"/>
<path d="M270 2315 c0 -18 -5 -25 -20 -25 -13 0 -18 -5 -14 -15 4 -8 12 -15
19 -15 7 0 16 -6 19 -12 5 -10 7 -10 12 0 3 6 23 12 45 12 73 0 102 33 57 64
-43 30 -104 10 -63 -21 18 -12 17 -13 -8 -13 -15 0 -26 3 -26 8 1 4 1 15 0 25
-2 27 -21 20 -21 -8z"/>
<path d="M2506 2333 c-3 -4 -24 -6 -46 -5 -40 3 -55 -13 -25 -24 10 -4 15 -20
15 -49 0 -29 -5 -45 -15 -49 -32 -12 -13 -26 35 -26 38 0 50 4 50 15 0 8 -4
15 -10 15 -5 0 -10 20 -10 45 0 25 5 45 10 45 6 0 10 -4 10 -10 0 -5 9 -10 20
-10 14 0 20 7 20 24 0 28 -35 47 -54 29z"/>
<path d="M2589 2311 c-48 -49 -32 -122 29 -136 40 -8 82 10 82 35 0 21 -14 27
-25 10 -10 -15 -52 -12 -59 5 -4 12 4 15 44 15 47 0 50 2 50 25 0 31 -41 75
-70 75 -12 0 -35 -13 -51 -29z m71 -21 c0 -5 -12 -10 -26 -10 -14 0 -23 4 -19
10 3 6 15 10 26 10 10 0 19 -4 19 -10z"/>
<path d="M3213 2333 c-29 -3 -43 -9 -43 -19 0 -8 5 -14 10 -14 6 0 10 -20 10
-45 0 -25 -4 -45 -10 -45 -5 0 -10 -7 -10 -15 0 -10 10 -15 28 -15 32 0 64 19
45 27 -8 3 -13 23 -13 50 0 40 2 44 23 41 18 -2 23 -10 25 -40 4 -42 5 -43 33
-28 29 16 25 64 -7 89 -15 12 -32 20 -38 19 -6 -1 -30 -3 -53 -5z"/>
<path d="M696 2283 c2 -21 3 -46 3 -55 1 -11 9 -18 22 -18 16 0 19 4 14 23 -5
19 -5 20 5 4 15 -24 30 -12 30 24 0 25 -4 29 -27 30 -16 0 -22 3 -15 6 20 8
13 23 -11 23 -21 0 -24 -4 -21 -37z"/>
<path d="M2818 2260 c-3 -20 0 -30 9 -30 7 0 13 11 13 24 0 36 -17 41 -22 6z"/>
<path d="M926 2263 c-15 -15 -3 -24 27 -21 17 2 32 7 32 12 0 10 -50 17 -59 9z"/>
<path d="M2512 2258 c5 -15 28 -18 29 -3 0 6 -7 12 -17 13 -10 3 -15 -1 -12
-10z"/>
<path d="M2370 2247 c0 -9 12 -16 30 -19 20 -3 30 0 30 9 0 7 -6 13 -14 13 -8
0 -21 3 -30 6 -10 4 -16 1 -16 -9z"/>
<path d="M3130 2240 c0 -11 5 -20 10 -20 6 0 10 9 10 20 0 11 -4 20 -10 20 -5
0 -10 -9 -10 -20z"/>
<path d="M385 2240 c-3 -5 -25 -10 -48 -10 -58 0 -66 -8 -64 -66 0 -28 -2 -55
-6 -61 -8 -13 20 -53 39 -53 25 0 16 -37 -11 -44 -24 -6 -35 -38 -17 -50 8 -5
7 -69 -1 -83 -3 -5 -1 -15 4 -23 8 -13 10 -13 18 -1 6 10 23 12 60 9 50 -5 51
-5 44 21 -7 32 -14 40 -20 24 -6 -18 -58 -16 -73 2 -17 20 8 29 59 21 36 -5
38 -4 34 18 -4 21 -9 23 -54 18 -32 -3 -49 -1 -49 7 0 7 20 11 50 11 57 0 74
18 46 49 -15 16 -15 19 -1 24 25 10 18 45 -14 62 -30 15 -61 11 -61 -7 0 -5
-4 -6 -10 -3 -5 3 -10 13 -10 22 0 13 10 15 53 11 l54 -4 1 58 c2 53 -8 73
-23 48z m2 -52 c-5 -15 -66 -13 -81 2 -7 7 7 10 38 10 34 0 46 -4 43 -12z m-8
-109 c-18 -11 -46 -11 -53 0 -3 4 6 6 19 3 15 -2 25 0 25 7 0 7 5 9 11 5 8 -4
7 -9 -2 -15z"/>
<path d="M216 2198 c1 -29 7 -44 17 -46 11 -2 15 8 15 43 1 37 -2 45 -17 45
-14 0 -17 -8 -15 -42z"/>
<path d="M747 2203 c-11 -10 -8 -93 3 -93 6 0 10 23 10 50 0 51 -1 55 -13 43z"/>
<path d="M1208 2203 c-43 -5 -52 -23 -12 -23 26 0 26 0 20 -60 -4 -39 -3 -60
4 -60 5 0 10 9 10 19 0 11 5 23 11 27 6 3 9 22 7 40 -3 24 0 34 10 34 15 0 12
23 -4 25 -5 1 -26 0 -46 -2z"/>
<path d="M420 2160 c0 -36 3 -40 25 -40 14 0 25 5 25 10 0 6 33 10 80 10 47 0
80 -4 80 -10 0 -5 11 -10 25 -10 23 0 25 4 25 40 0 36 -2 40 -25 40 -14 0 -25
-4 -25 -10 0 -6 -33 -10 -80 -10 -47 0 -80 4 -80 10 0 6 -11 10 -25 10 -22 0
-25 -4 -25 -40z"/>
<path d="M699 2133 c-1 -38 -3 -86 -4 -109 -4 -53 7 -73 30 -54 14 11 16 11
13 0 -5 -23 29 -23 35 0 9 35 -4 130 -19 130 -7 0 -15 -6 -17 -12 -3 -7 -6 15
-6 50 -1 48 -4 62 -16 62 -12 0 -15 -15 -16 -67z"/>
<path d="M1060 2160 c0 -5 4 -10 10 -10 5 0 7 -13 4 -30 -5 -23 -3 -30 10 -30
12 0 16 10 16 40 0 33 -3 40 -20 40 -11 0 -20 -4 -20 -10z"/>
<path d="M1134 2155 c-3 -8 -3 -18 0 -24 3 -5 -1 -16 -10 -25 -15 -15 -12 -56
5 -56 3 0 7 -9 7 -20 0 -11 -4 -20 -8 -20 -5 0 -5 -12 -2 -26 13 -50 10 -154
-3 -154 -17 0 -16 -18 0 -35 15 -14 11 -75 -4 -75 -5 0 -9 -4 -9 -10 0 -5 21
-10 46 -10 l46 0 -4 35 c-3 24 0 35 9 35 16 0 17 17 1 22 -8 3 -11 58 -11 191
l0 187 -29 0 c-16 0 -31 -6 -34 -15z"/>
<path d="M190 2126 c0 -11 9 -16 30 -16 17 0 30 5 30 10 0 6 -6 10 -14 10 -8
0 -21 3 -30 6 -11 4 -16 1 -16 -10z"/>
<path d="M550 2100 c0 -5 11 -10 25 -10 14 0 25 5 25 10 0 6 -11 10 -25 10
-14 0 -25 -4 -25 -10z"/>
<path d="M190 2081 c0 -12 29 -35 36 -28 11 10 -5 37 -21 37 -8 0 -15 -4 -15
-9z"/>
<path d="M437 2062 c-19 -21 -21 -45 -7 -73 10 -17 22 -19 115 -19 96 0 105 2
119 22 21 30 20 44 -4 68 -17 17 -33 20 -113 20 -78 0 -97 -3 -110 -18z m201
-39 c3 -10 -19 -13 -87 -13 -84 0 -102 5 -84 24 13 12 166 2 171 -11z"/>
<path d="M218 2042 c-31 -6 -19 -22 17 -22 19 0 35 4 35 9 0 11 -29 18 -52 13z"/>
<path d="M1210 2020 c0 -16 5 -30 10 -30 6 0 10 14 10 30 0 17 -4 30 -10 30
-5 0 -10 -13 -10 -30z"/>
<path d="M886 2015 c-4 -12 2 -14 27 -11 18 3 38 5 45 5 6 1 12 6 12 11 0 17
-77 12 -84 -5z"/>
<path d="M1079 2008 c-1 -13 -1 -26 0 -30 0 -4 -6 -5 -14 -2 -21 8 -19 -13 3
-25 16 -10 16 -10 0 -11 -10 0 -18 -4 -18 -10 0 -5 7 -10 15 -10 10 0 15 -10
15 -34 0 -19 4 -37 9 -40 11 -7 35 20 27 32 -3 5 -6 41 -7 80 -1 53 -5 72 -15
72 -8 0 -15 -10 -15 -22z"/>
<path d="M180 1995 c0 -10 11 -15 35 -15 24 0 35 5 35 15 0 10 -11 15 -35 15
-24 0 -35 -5 -35 -15z"/>
<path d="M224 1956 c-3 -7 -4 -35 -2 -62 2 -37 7 -50 21 -52 15 -3 17 5 17 62
0 53 -3 66 -15 66 -9 0 -18 -6 -21 -14z"/>
<path d="M180 1935 c0 -14 5 -25 10 -25 6 0 10 11 10 25 0 14 -4 25 -10 25 -5
0 -10 -11 -10 -25z"/>
<path d="M580 1920 c0 -21 4 -30 13 -27 6 2 12 14 12 27 0 13 -6 25 -12 28 -9
2 -13 -7 -13 -28z"/>
<path d="M430 1920 c-6 -12 -10 -35 -8 -53 l3 -32 125 0 c104 0 125 2 125 15
0 11 -14 16 -57 18 -53 3 -58 5 -58 25 0 35 -19 47 -72 47 -37 0 -50 -4 -58
-20z m90 -35 c0 -10 -10 -15 -30 -15 -20 0 -30 5 -30 15 0 10 10 15 30 15 20
0 30 -5 30 -15z"/>
<path d="M868 1922 c-11 -2 -18 -13 -18 -25 0 -21 5 -23 61 -24 60 -2 60 -1
57 25 -3 23 -7 26 -43 27 -22 0 -48 -1 -57 -3z"/>
<path d="M172 1870 c-2 -21 2 -30 13 -30 10 0 15 10 15 30 0 18 -5 30 -13 30
-7 0 -14 -13 -15 -30z"/>
<path d="M333 1843 c-7 -2 -13 -11 -13 -18 0 -7 6 -16 13 -18 7 -4 6 -6 -5 -6
-9 -1 -23 6 -32 14 -8 8 -17 15 -19 15 -3 0 -8 -31 -12 -68 -8 -84 7 -150 37
-161 l22 -8 -22 -5 c-19 -5 -22 -13 -22 -52 0 -25 5 -46 10 -46 6 0 10 4 10 9
0 4 17 7 38 6 50 -3 52 -4 52 -15 0 -5 -24 -10 -53 -10 -57 0 -77 -12 -77 -45
0 -28 34 -59 56 -51 10 4 24 0 34 -9 15 -14 18 -14 30 1 11 12 11 22 3 44 -9
24 -8 27 8 23 17 -5 19 1 19 51 0 59 -3 62 -46 46 -24 -10 -26 -9 -13 6 11 14
11 18 -6 30 -18 13 -17 14 11 14 17 0 35 5 40 10 7 7 20 6 39 -4 40 -21 83 3
69 38 -12 31 -60 46 -144 46 -64 0 -80 3 -80 15 0 10 10 15 29 15 50 0 84 18
78 40 -3 11 1 24 9 31 22 18 17 37 -16 54 -16 8 -30 15 -32 14 -2 0 -9 -3 -15
-6z m26 -82 c9 -6 3 -10 -20 -13 -39 -6 -62 0 -53 13 7 11 55 11 73 0z m20
-120 c11 -7 9 -10 -7 -15 -24 -8 -72 2 -72 15 0 12 61 11 79 0z m97 -7 c18
-14 18 -15 -5 -4 -12 7 -32 10 -42 7 -10 -3 -22 -1 -25 4 -9 15 51 10 72 -7z
m-152 -198 c-3 -8 -13 -12 -25 -9 -23 6 -15 23 11 23 12 0 17 -5 14 -14z m36
-24 c0 -15 -2 -15 -10 -2 -13 20 -13 33 0 25 6 -3 10 -14 10 -23z"/>
<path d="M1063 1781 c1 -50 5 -61 18 -61 21 0 28 26 20 76 -4 25 -12 40 -23
42 -14 3 -16 -6 -15 -57z"/>
<path d="M170 1815 c0 -9 10 -15 23 -16 16 -1 18 -2 5 -6 -31 -8 -19 -23 17
-23 19 0 35 5 35 10 0 6 -6 10 -12 10 -7 0 -5 5 5 11 30 17 19 29 -28 29 -33
0 -45 -4 -45 -15z"/>
<path d="M640 1811 c0 -7 7 -14 15 -17 12 -5 13 -9 3 -21 -9 -11 -9 -16 2 -23
8 -5 18 -6 22 -4 11 7 10 64 -1 64 -5 0 -16 3 -25 6 -9 3 -16 1 -16 -5z"/>
<path d="M427 1803 c-13 -12 -7 -25 8 -19 13 4 13 2 5 -14 -16 -30 -12 -40 15
-40 14 0 25 6 25 13 0 8 3 9 8 1 4 -6 24 -11 45 -12 34 -1 37 1 32 18 -4 11
-2 20 3 20 5 0 12 -9 15 -21 10 -36 42 -20 42 21 l0 35 -60 1 c-33 1 -66 -3
-72 -8 -9 -7 -13 -7 -13 1 0 12 -42 15 -53 4z m180 -45 c-3 -7 -5 -2 -5 12 0
14 2 19 5 13 2 -7 2 -19 0 -25z m-135 0 c-7 -7 -12 -8 -12 -2 0 14 12 26 19
19 2 -3 -1 -11 -7 -17z m58 7 c-7 -8 -17 -15 -23 -15 -6 0 -2 7 9 15 25 19 30
19 14 0z"/>
<path d="M730 1765 c0 -14 5 -25 10 -25 6 0 10 11 10 25 0 14 -4 25 -10 25 -5
0 -10 -11 -10 -25z"/>
<path d="M767 1771 c-6 -25 3 -71 14 -71 5 0 9 20 9 45 0 45 -13 61 -23 26z"/>
<path d="M854 1778 c-14 -22 21 -34 84 -30 52 3 62 7 62 22 0 16 -9 18 -70 18
-39 0 -73 -5 -76 -10z"/>
<path d="M170 1740 c0 -5 10 -10 23 -10 20 0 22 -5 24 -62 2 -34 8 -65 14 -69
8 -4 3 -8 -11 -11 -24 -3 -24 -5 -25 -113 0 -107 1 -110 23 -113 24 -4 24 -4
22 96 -1 50 2 62 14 62 12 0 16 10 16 34 0 19 -4 38 -10 41 -5 3 -10 32 -10
63 0 31 -7 65 -14 75 -14 18 -66 24 -66 7z"/>
<path d="M990 1730 c0 -5 14 -10 30 -10 17 0 30 5 30 10 0 6 -13 10 -30 10
-16 0 -30 -4 -30 -10z"/>
<path d="M670 1720 c0 -5 4 -10 8 -10 22 0 5 -29 -20 -34 -33 -6 -52 -44 -42
-82 8 -31 31 -41 85 -36 30 3 39 8 35 19 -3 8 -6 46 -6 84 l0 69 -30 0 c-16 0
-30 -4 -30 -10z m16 -105 c-1 -21 -6 -35 -13 -35 -8 0 -13 13 -13 35 0 22 5
35 13 35 9 0 13 -12 13 -35z"/>
<path d="M859 1714 c-7 -9 -12 -38 -11 -73 l2 -58 -32 1 c-42 1 -50 26 -9 26
37 0 42 27 10 56 -19 17 -23 17 -47 3 -50 -27 -38 -111 15 -110 10 1 42 1 71
1 29 0 52 4 52 10 0 5 -4 10 -10 10 -5 0 -10 16 -10 35 0 27 4 35 18 35 14 0
17 -8 15 -45 l-2 -45 93 0 94 0 -5 48 c-3 26 -10 52 -15 57 -5 6 -31 10 -58
10 l-48 0 5 -47 c4 -33 2 -48 -6 -48 -6 0 -11 18 -11 45 0 40 -3 45 -22 46
-45 2 -51 4 -55 15 -4 12 25 12 45 0 15 -9 32 1 32 19 0 21 -19 28 -35 15 -11
-9 -15 -9 -15 -1 0 17 -46 13 -61 -5z m-59 -74 c0 -5 -4 -10 -10 -10 -5 0 -10
5 -10 10 0 6 5 10 10 10 6 0 10 -4 10 -10z m250 -31 c0 -24 -4 -38 -10 -34 -5
3 -10 22 -10 41 0 19 5 34 10 34 6 0 10 -18 10 -41z"/>
<path d="M450 1710 c0 -5 14 -10 30 -10 17 0 30 5 30 10 0 6 -13 10 -30 10
-16 0 -30 -4 -30 -10z"/>
<path d="M600 1703 c0 -8 12 -13 30 -13 17 0 30 4 30 9 0 5 -13 11 -30 13 -20
3 -30 0 -30 -9z"/>
<path d="M1010 1700 c0 -5 18 -10 40 -10 22 0 40 5 40 10 0 6 -18 10 -40 10
-22 0 -40 -4 -40 -10z"/>
<path d="M520 1605 l0 -95 30 0 30 0 0 95 0 95 -30 0 -30 0 0 -95z"/>
<path d="M170 1645 c0 -29 3 -36 18 -33 23 5 23 62 -1 66 -13 3 -17 -4 -17
-33z"/>
<path d="M1126 1664 c-19 -18 -21 -75 -4 -92 17 -17 78 -16 78 1 0 8 -10 13
-21 13 -12 -1 -24 5 -26 12 -3 8 6 12 26 12 37 0 41 20 11 50 -24 24 -43 25
-64 4z"/>
<path d="M443 1553 c-20 -7 -16 -53 4 -53 15 0 14 -2 -3 -16 -13 -11 -15 -17
-6 -20 15 -7 17 -144 2 -144 -5 0 -10 -4 -10 -10 0 -5 16 -10 35 -10 24 0 35
5 35 15 0 8 -5 15 -10 15 -7 0 -9 35 -7 103 5 128 2 138 -40 120z"/>
<path d="M612 1538 c-19 -19 -14 -30 10 -26 13 2 24 11 26 21 4 20 -18 23 -36
5z"/>
<path d="M695 1540 c-20 -4 -26 -8 -17 -13 8 -6 12 -38 12 -101 0 -77 3 -96
18 -109 21 -19 49 -22 72 -7 23 14 1 65 -28 64 -20 0 -22 4 -22 44 0 44 0 44
30 39 26 -6 30 -3 30 14 0 18 -5 21 -30 17 -26 -4 -29 -2 -32 26 -3 29 -5 31
-33 26z m68 -211 c-13 -13 -33 -4 -32 14 0 9 2 9 6 0 8 -20 26 -15 18 5 -5 14
-4 15 6 5 10 -10 10 -16 2 -24z"/>
<path d="M803 1543 c-7 -2 -13 -9 -13 -15 0 -12 41 -6 41 7 1 12 -11 15 -28 8z"/>
<path d="M870 1505 c0 -35 3 -43 15 -39 10 4 15 20 15 45 0 28 -4 39 -15 39
-11 0 -15 -12 -15 -45z"/>
<path d="M1137 1534 c-3 -4 -55 -7 -114 -8 l-108 -1 2 -42 c3 -48 -4 -51 -67
-33 -23 7 -36 7 -38 0 -2 -5 -15 -10 -28 -10 -19 0 -24 -5 -24 -25 0 -25 1
-25 79 -25 54 0 81 -4 84 -12 11 -28 24 15 20 63 l-5 49 146 0 c120 0 146 3
146 14 0 8 -3 17 -7 19 -16 9 -80 17 -86 11z"/>
<path d="M520 1478 c-21 -9 -22 -12 -7 -15 14 -4 17 -16 17 -74 0 -39 -4 -69
-10 -69 -5 0 -10 -4 -10 -10 0 -5 18 -10 40 -10 29 0 40 4 40 15 0 8 -4 15
-10 15 -6 0 -10 27 -10 60 0 74 23 84 40 18 11 -39 10 -56 -5 -103 -6 -19 -2
-21 29 -21 23 0 36 5 36 13 0 7 -4 13 -9 13 -5 0 -11 34 -13 76 -4 83 -14 98
-60 90 -16 -3 -28 -1 -28 4 0 12 -8 12 -40 -2z"/>
<path d="M990 1460 c-15 -15 -20 -31 -18 -58 l3 -37 125 0 c118 0 125 1 125
20 0 17 -8 21 -60 25 l-60 5 49 8 c67 12 76 16 76 39 0 18 -4 19 -37 12 -42
-9 -76 -8 -140 1 -34 6 -45 3 -63 -15z m78 -37 c2 -9 -7 -13 -27 -13 -30 0
-39 9 -24 24 11 10 46 3 51 -11z"/>
<path d="M410 1390 c0 -22 5 -40 10 -40 6 0 10 18 10 40 0 22 -4 40 -10 40 -5
0 -10 -18 -10 -40z"/>
<path d="M1241 1312 c0 -42 -3 -85 -6 -94 -4 -9 -2 -19 3 -22 12 -7 3 -56 -12
-57 -6 -1 -23 0 -38 1 -16 1 -28 -3 -28 -9 0 -7 24 -11 60 -11 60 0 60 0 60
29 0 17 4 33 10 36 6 4 5 13 -3 25 -9 16 -9 24 0 40 8 12 9 21 3 25 -6 4 -8
10 -5 15 3 4 -2 10 -10 14 -10 3 -15 19 -15 46 0 22 -4 40 -10 40 -5 0 -9 -35
-9 -78z"/>
<path d="M843 1363 c-49 -6 -44 -33 6 -33 32 0 38 -3 37 -20 0 -12 -6 -24 -12
-28 -7 -4 -14 -18 -17 -32 -4 -24 -4 -24 -6 3 -1 31 -24 45 -45 28 -7 -6 -16
-8 -20 -4 -3 4 -27 8 -51 9 l-45 3 0 -44 c0 -38 3 -45 20 -45 17 0 19 5 14 25
-8 31 8 33 21 3 9 -21 17 -23 93 -24 l82 -1 0 52 c0 49 -23 117 -38 113 -4 0
-22 -3 -39 -5z m44 -135 c-3 -7 -5 -2 -5 12 0 14 2 19 5 13 2 -7 2 -19 0 -25z
m-97 7 c-7 -9 -15 -13 -19 -10 -3 3 1 10 9 15 21 14 24 12 10 -5z"/>
<path d="M2530 1354 c0 -11 5 -14 16 -10 9 3 22 6 30 6 8 0 14 5 14 10 0 6
-13 10 -30 10 -21 0 -30 -5 -30 -16z"/>
<path d="M2629 1363 c-1 -5 -1 -11 0 -15 0 -5 -15 -8 -35 -8 -33 0 -35 -2 -32
-27 l3 -28 106 0 106 -1 0 43 0 43 -74 0 c-40 0 -74 -3 -74 -7z"/>
<path d="M2378 1335 c-4 -17 -1 -25 8 -25 8 0 14 11 14 25 0 14 -4 25 -9 25
-5 0 -11 -11 -13 -25z"/>
<path d="M2417 1354 c-4 -4 -7 -16 -7 -27 0 -17 5 -19 31 -13 17 3 42 6 55 6
15 0 24 6 24 15 0 10 -10 15 -27 15 -16 0 -37 3 -48 6 -11 3 -24 2 -28 -2z"/>
<path d="M3226 1353 c-3 -3 -6 -24 -6 -46 0 -32 3 -38 16 -33 15 6 15 4 3 -10
-11 -13 -11 -18 -1 -21 7 -3 12 -22 12 -48 0 -25 -5 -45 -12 -48 -10 -4 -9 -8
2 -16 13 -9 13 -11 -2 -11 -14 0 -18 -9 -18 -40 0 -40 15 -56 22 -22 2 11 6
13 11 5 4 -6 0 -18 -8 -26 -24 -24 -18 -33 20 -29 32 4 34 6 33 39 -1 20 5 38
13 44 11 7 12 12 2 29 -15 23 -18 176 -4 184 5 4 7 -3 4 -14 -4 -14 0 -20 11
-20 9 0 19 0 24 0 4 0 8 17 9 39 l3 39 -56 1 c-30 0 -58 3 -63 5 -4 3 -11 3
-15 -1z"/>
<path d="M338 1339 c-2 -7 -24 -11 -51 -11 -46 1 -47 0 -47 -28 0 -30 1 -30
55 -30 30 0 55 -4 55 -10 0 -5 -25 -10 -55 -10 l-55 0 0 -45 0 -45 40 -1 c22
-1 45 -2 52 -3 6 -1 13 5 16 12 2 7 -5 12 -19 12 -46 0 -8 12 43 13 50 2 53 3
56 30 3 23 0 28 -15 27 -30 -4 -43 0 -43 10 0 6 9 10 21 10 30 0 23 54 -8 58
-13 2 -23 8 -23 13 0 13 -18 11 -22 -2z m-48 -155 c0 -2 -7 -4 -15 -4 -8 0
-15 4 -15 10 0 5 7 7 15 4 8 -4 15 -8 15 -10z"/>
<path d="M920 1340 c0 -5 4 -10 8 -10 4 0 8 -10 9 -22 1 -79 4 -98 13 -98 6 0
10 30 10 70 0 63 -2 70 -20 70 -11 0 -20 -4 -20 -10z"/>
<path d="M1137 1343 c-13 -12 -7 -23 13 -23 11 0 20 7 20 15 0 15 -21 21 -33
8z"/>
<path d="M1180 1316 c0 -34 -2 -36 -35 -36 -28 0 -35 4 -35 20 0 15 -7 20 -25
20 -18 0 -25 -5 -25 -20 0 -15 -7 -20 -25 -20 -21 0 -25 5 -25 30 0 23 -4 30
-20 30 -17 0 -20 -7 -20 -50 l0 -50 131 0 130 0 -3 53 c-3 45 -6 52 -25 55
-20 3 -23 -1 -23 -32z"/>
<path d="M2814 1336 c-13 -9 -21 -27 -22 -46 l-1 -31 107 3 c87 2 107 6 107
18 0 12 -19 16 -90 21 l-90 5 92 2 c86 2 91 3 86 22 -5 18 -14 20 -87 20 -55
0 -88 -5 -102 -14z"/>
<path d="M3018 1327 c-7 -34 3 -98 14 -95 14 5 16 118 2 118 -7 0 -14 -10 -16
-23z"/>
<path d="M3133 1343 c-51 -3 -63 -7 -63 -21 0 -14 10 -17 62 -15 35 1 52 -1
38 -3 -66 -12 -70 -14 -70 -39 0 -20 7 -26 40 -35 22 -6 40 -13 40 -16 0 -4
-7 -3 -16 0 -9 4 -25 4 -35 1 -15 -5 -18 -17 -18 -75 0 -38 -3 -74 -6 -80 -4
-6 -2 -17 5 -25 8 -9 8 -15 0 -20 -6 -3 -8 -11 -5 -16 4 -5 -1 -9 -9 -9 -21 0
-20 -10 1 -25 11 -9 28 -10 57 -3 53 12 67 25 43 42 -15 12 -15 15 -2 26 20
17 19 25 -7 39 l-23 11 24 -6 c20 -5 23 -3 18 11 -4 9 -7 21 -7 26 0 4 -7 6
-15 3 -8 -4 -15 -1 -15 5 0 7 -10 16 -22 22 -19 8 -16 9 17 6 l40 -4 0 42 c0
24 -3 42 -6 39 -4 -2 -9 7 -11 21 -4 17 -1 25 8 25 10 0 14 13 14 40 0 22 -3
39 -7 38 -5 -1 -36 -3 -70 -5z m45 -160 c-10 -2 -26 -2 -35 0 -10 3 -2 5 17 5
19 0 27 -2 18 -5z m-18 -107 c0 -2 -7 -6 -15 -10 -8 -3 -15 -1 -15 4 0 6 7 10
15 10 8 0 15 -2 15 -4z m-23 -78 c-3 -8 -6 -5 -6 6 -1 11 2 17 5 13 3 -3 4
-12 1 -19z"/>
<path d="M2490 1301 c0 -6 -17 -11 -37 -13 -27 -2 -37 -7 -35 -17 2 -10 -1
-12 -10 -4 -7 5 -24 10 -36 11 -17 1 -22 -3 -18 -14 3 -9 6 -49 6 -90 0 -67 2
-74 20 -74 18 0 20 7 20 76 0 41 4 73 9 70 5 -3 7 -36 5 -73 -7 -105 -3 -113
56 -113 l50 0 0 125 c0 104 -2 125 -15 125 -8 0 -15 -4 -15 -9z m-2 -166 c-3
-3 -9 2 -12 12 -6 14 -5 15 5 6 7 -7 10 -15 7 -18z"/>
<path d="M460 1265 c0 -14 5 -25 10 -25 6 0 10 11 10 25 0 14 -4 25 -10 25 -5
0 -10 -11 -10 -25z"/>
<path d="M3065 1278 c-8 -20 -3 -48 9 -51 12 -3 15 23 6 48 -7 18 -9 18 -15 3z"/>
<path d="M523 1273 c-22 -4 -33 -33 -13 -33 14 0 13 -163 -1 -177 -17 -17 -4
-28 32 -27 33 1 49 17 30 29 -6 3 -11 22 -11 41 0 27 4 34 20 34 11 0 20 -3
21 -7 0 -5 3 -20 5 -35 3 -16 0 -28 -6 -28 -5 0 -10 -6 -10 -14 0 -8 14 -15
36 -18 38 -4 53 7 35 25 -6 6 -11 29 -11 52 0 50 -13 65 -57 65 -33 0 -33 0
-33 50 0 28 -3 49 -7 49 -5 -1 -18 -4 -30 -6z"/>
<path d="M2537 1267 c-6 -16 0 -207 6 -214 19 -18 27 19 27 118 0 86 -3 109
-14 109 -8 0 -16 -6 -19 -13z"/>
<path d="M2580 1251 c0 -21 5 -31 16 -31 11 0 14 8 12 27 -4 39 -28 42 -28 4z"/>
<path d="M570 1255 c0 -11 12 -15 45 -15 33 0 45 4 45 15 0 11 -12 15 -45 15
-33 0 -45 -4 -45 -15z"/>
<path d="M2635 1256 c-12 -8 -16 -20 -12 -35 3 -13 1 -21 -8 -21 -26 0 -34
-84 -9 -94 13 -5 15 -1 10 17 -8 32 3 41 26 20 22 -20 23 -46 2 -64 -13 -11
-17 -10 -25 4 -13 22 -39 22 -39 -1 0 -24 19 -42 45 -42 19 0 18 -2 -5 -20
-14 -10 -22 -22 -18 -26 12 -11 73 31 75 52 2 10 6 34 9 52 4 19 2 38 -6 47
-10 12 -9 16 4 21 24 9 19 29 -9 42 -28 13 -32 30 -10 38 8 4 15 10 15 15 0
13 -24 11 -45 -5z"/>
<path d="M2690 1261 c0 -13 25 -20 49 -14 33 9 24 23 -14 23 -19 0 -35 -4 -35
-9z"/>
<path d="M3310 1205 c0 -42 3 -55 15 -55 12 0 15 13 15 55 0 42 -3 55 -15 55
-12 0 -15 -13 -15 -55z"/>
<path d="M2802 1238 c-37 -37 6 -68 94 -68 80 0 108 14 102 51 -3 23 -6 24
-93 27 -62 2 -94 -1 -103 -10z m136 -25 c-21 -2 -55 -2 -75 0 -21 2 -4 4 37 4
41 0 58 -2 38 -4z"/>
<path d="M2757 1233 c-13 -13 -7 -53 8 -53 10 0 15 10 15 30 0 29 -9 38 -23
23z"/>
<path d="M970 1175 c0 -48 2 -55 20 -55 11 0 20 7 20 15 0 12 19 15 111 15
109 0 110 0 107 23 -3 21 -8 22 -110 25 -87 2 -108 6 -108 17 0 8 -9 15 -20
15 -18 0 -20 -7 -20 -55z"/>
<path d="M3033 1222 c-12 -7 -16 -52 -13 -139 1 -35 5 -43 21 -43 17 0 19 8
19 89 0 89 -5 106 -27 93z"/>
<path d="M3220 1195 c0 -19 5 -35 10 -35 6 0 10 16 10 35 0 19 -4 35 -10 35
-5 0 -10 -16 -10 -35z"/>
<path d="M440 1210 c0 -5 14 -10 30 -10 17 0 30 5 30 10 0 6 -13 10 -30 10
-16 0 -30 -4 -30 -10z"/>
<path d="M570 1205 c0 -11 12 -15 45 -15 33 0 45 4 45 15 0 11 -12 15 -45 15
-33 0 -45 -4 -45 -15z"/>
<path d="M1307 1193 c-12 -11 -8 -34 9 -50 13 -14 17 -14 25 -2 12 20 11 28
-5 45 -16 16 -20 17 -29 7z"/>
<path d="M403 1175 c-53 -23 -58 -98 -8 -131 33 -22 95 -12 95 16 0 15 -6 17
-40 13 l-40 -6 0 37 c0 41 26 61 42 33 14 -26 38 -21 38 8 0 18 -7 28 -26 35
-14 6 -26 10 -27 10 -1 -1 -16 -7 -34 -15z"/>
<path d="M703 1178 c-29 -14 -31 -48 -3 -48 11 0 20 5 20 10 0 6 7 10 15 10
25 0 17 -17 -14 -28 -41 -15 -58 -48 -36 -72 14 -16 29 -18 94 -16 42 2 88 4
104 5 17 1 27 7 27 16 0 8 -4 15 -10 15 -5 0 -10 18 -10 40 0 22 5 40 10 40 6
0 10 -4 10 -10 0 -5 9 -10 20 -10 15 0 20 7 20 24 0 26 -30 43 -52 30 -7 -4
-27 -7 -45 -6 -24 2 -33 -2 -33 -13 0 -8 5 -15 11 -15 6 0 9 -17 7 -42 -2 -31
-8 -44 -20 -46 -15 -3 -18 4 -18 47 0 40 -4 53 -22 65 -26 18 -44 19 -75 4z
m43 -104 c-5 -14 -9 -15 -19 -5 -9 9 -9 14 3 21 18 11 24 6 16 -16z"/>
<path d="M2330 1130 c0 -22 5 -40 10 -40 6 0 10 18 10 40 0 22 -4 40 -10 40
-5 0 -10 -18 -10 -40z"/>
<path d="M3070 1135 c0 -24 5 -35 15 -35 10 0 15 11 15 35 0 24 -5 35 -15 35
-10 0 -15 -11 -15 -35z"/>
<path d="M2720 1145 c0 -9 9 -15 25 -15 16 0 25 6 25 15 0 9 -9 15 -25 15 -16
0 -25 -6 -25 -15z"/>
<path d="M2790 1145 c0 -12 18 -15 104 -15 83 0 105 3 110 15 5 13 -11 15
-104 15 -91 0 -110 -3 -110 -15z"/>
<path d="M317 1092 c2 -80 3 -83 13 -77 15 9 13 125 -2 125 -9 0 -13 -15 -11
-48z"/>
<path d="M1120 1090 c0 -27 5 -50 10 -50 6 0 10 23 10 50 0 28 -4 50 -10 50
-5 0 -10 -22 -10 -50z"/>
<path d="M270 1100 c0 -20 5 -30 15 -30 10 0 15 10 15 30 0 20 -5 30 -15 30
-10 0 -15 -10 -15 -30z"/>
<path d="M1055 1090 c0 -32 3 -40 17 -40 14 0 18 8 18 40 0 32 -4 40 -18 40
-14 0 -17 -8 -17 -40z"/>
<path d="M930 1085 c0 -39 15 -48 22 -12 5 27 0 47 -13 47 -5 0 -9 -16 -9 -35z"/>
<path d="M1287 1114 c-16 -17 -4 -24 39 -24 32 0 44 4 42 13 -5 13 -69 22 -81
11z"/>
<path d="M2763 1112 c-30 -2 -43 -8 -43 -18 0 -23 18 -25 150 -17 99 6 125 11
128 23 2 13 -14 15 -95 15 -54 0 -117 -1 -140 -3z"/>
<path d="M420 1100 c0 -5 18 -10 40 -10 22 0 40 5 40 10 0 6 -18 10 -40 10
-22 0 -40 -4 -40 -10z"/>
<path d="M1000 1097 c-19 -10 -25 -20 -25 -47 0 -46 29 -60 123 -60 92 0 131
18 132 62 0 22 -27 48 -51 48 -22 0 -27 -35 -6 -43 26 -11 -19 -27 -78 -27
-65 0 -100 13 -77 29 8 4 12 18 10 29 -3 19 -5 20 -28 9z"/>
<path d="M1373 1066 c5 -13 0 -16 -27 -16 -19 0 -37 6 -40 13 -5 9 -7 9 -12
-1 -3 -6 -10 -10 -15 -6 -5 3 -9 -4 -9 -15 0 -24 19 -28 82 -21 56 7 66 15 52
37 -15 23 -39 30 -31 9z"/>
<path d="M2370 1069 c0 -7 -10 -9 -25 -7 -31 6 -86 -35 -69 -52 6 -6 20 -12
31 -13 17 -1 19 -4 9 -19 -9 -15 -8 -21 4 -28 12 -8 9 -10 -11 -10 -15 0 -29
-7 -33 -15 -4 -12 5 -15 55 -15 52 0 60 2 57 18 -1 9 1 23 6 30 4 7 2 20 -6
29 -11 14 -10 15 10 9 17 -6 22 -3 22 11 0 16 -7 18 -55 15 -35 -3 -55 0 -55
7 0 6 3 10 8 10 33 -5 72 3 72 15 0 8 -4 18 -10 21 -5 3 -10 1 -10 -6z m10
-93 c0 -3 -4 -8 -10 -11 -5 -3 -10 -1 -10 4 0 6 5 11 10 11 6 0 10 -2 10 -4z"/>
<path d="M2886 1061 c-58 -4 -82 -10 -89 -23 -16 -24 9 -48 49 -48 43 0 49 29
7 31 -26 2 -26 2 -4 6 17 3 31 -3 48 -21 41 -44 99 -28 105 29 4 35 4 35 -116
26z m77 -38 c-7 -2 -21 -2 -30 0 -10 3 -4 5 12 5 17 0 24 -2 18 -5z"/>
<path d="M2705 1051 c-11 -11 -3 -21 18 -22 17 -1 18 -2 4 -6 -15 -4 -17 -16
-15 -89 2 -88 6 -99 36 -90 16 5 18 18 18 96 -1 50 2 90 7 90 4 0 7 6 7 14 0
9 -11 13 -35 13 -20 -1 -38 -3 -40 -6z"/>
<path d="M1431 1041 c-11 -7 -11 -15 -3 -40 7 -19 7 -31 1 -31 -5 0 -9 -4 -9
-10 0 -5 9 -10 20 -10 17 0 20 7 20 50 0 51 -4 57 -29 41z"/>
<path d="M2240 1020 c0 -11 -7 -23 -15 -26 -10 -4 -13 -16 -8 -47 7 -59 20
-66 25 -16 2 13 9 29 17 35 9 7 11 20 6 42 -7 35 -25 43 -25 12z"/>
<path d="M2470 1031 c0 -5 -8 -17 -17 -26 -13 -14 -14 -21 -5 -35 8 -14 8 -27
1 -50 -10 -26 -9 -33 7 -46 18 -14 17 -14 -13 -9 -33 7 -45 -6 -21 -21 20 -12
178 -17 178 -5 0 6 -15 11 -32 11 -58 0 -76 10 -80 41 -3 16 -2 29 2 29 6 0 5
63 -1 80 -1 3 -1 13 0 23 1 9 -3 17 -8 17 -6 0 -11 -4 -11 -9z"/>
<path d="M2522 1014 c2 -11 11 -20 22 -22 13 -3 17 1 14 14 -2 11 -11 20 -22
22 -13 3 -17 -1 -14 -14z"/>
<path d="M3030 994 c0 -20 -5 -44 -10 -55 -6 -10 -7 -19 -2 -19 5 0 9 -26 10
-57 2 -59 11 -74 43 -66 19 5 25 24 12 37 -14 14 -13 46 2 46 10 0 15 11 15
35 0 36 -15 48 -23 18 -3 -10 -5 7 -6 37 -1 48 -4 56 -21 57 -16 1 -20 -4 -20
-33z"/>
<path d="M501 880 l1 -140 33 0 c34 0 51 20 33 38 -6 6 -6 12 1 16 17 11 0 36
-25 36 -13 0 -24 5 -24 10 0 6 14 10 32 10 36 0 28 16 -12 23 -21 4 -20 4 8 6
34 1 46 21 12 21 -11 0 -20 5 -20 10 0 6 6 10 14 10 19 0 28 26 13 38 -7 6
-21 12 -32 15 -13 3 -9 5 13 6 17 0 32 6 32 11 0 11 -7 14 -53 24 l-28 7 2
-141z"/>
<path d="M590 990 c0 -20 5 -30 15 -30 10 0 15 10 15 30 0 20 -5 30 -15 30
-10 0 -15 -10 -15 -30z"/>
<path d="M882 898 l3 -123 32 -3 32 -3 -2 123 -2 123 -33 3 -33 3 3 -123z"/>
<path d="M390 1001 c0 -6 -15 -11 -32 -13 -29 -3 -33 -7 -36 -35 -2 -25 1 -33
12 -33 9 0 16 -9 16 -20 0 -19 5 -20 58 -16 31 2 60 5 63 5 10 2 10 91 -1 91
-5 0 -10 -13 -10 -30 0 -16 -4 -30 -8 -30 -5 0 -7 14 -4 31 4 24 0 31 -17 36
-11 3 -21 9 -21 14 0 5 -4 9 -10 9 -5 0 -10 -4 -10 -9z"/>
<path d="M694 1003 c-49 -4 -52 -6 -58 -35 -14 -71 -19 -68 114 -68 l120 0 0
41 c0 67 -17 73 -176 62z m116 -53 c0 -5 -25 -10 -55 -10 -30 0 -55 5 -55 10
0 6 25 10 55 10 30 0 55 -4 55 -10z"/>
<path d="M1253 996 c4 -10 7 -31 7 -47 0 -16 5 -29 11 -29 16 0 7 83 -10 88
-10 3 -12 0 -8 -12z"/>
<path d="M1343 1003 c-43 -3 -53 -7 -53 -22 0 -16 7 -17 50 -13 33 3 50 1 50
-7 0 -7 -20 -11 -50 -11 -42 0 -50 -3 -50 -19 0 -16 6 -18 48 -13 26 2 53 9
60 15 13 10 17 78 5 75 -5 -1 -32 -3 -60 -5z"/>
<path d="M2632 988 c-7 -7 -12 -22 -12 -34 0 -12 -3 -29 -6 -38 -7 -19 -25
-22 -21 -4 1 6 -6 14 -15 16 -14 2 -18 -3 -18 -22 0 -26 32 -52 50 -41 11 7
13 -28 4 -62 -8 -28 -24 -30 -24 -3 0 11 -7 20 -16 20 -11 0 -14 -8 -12 -26 4
-35 31 -53 56 -37 15 9 21 7 30 -8 17 -26 15 -29 -10 -26 -35 3 -30 -34 5 -46
33 -11 33 -10 42 24 5 19 0 33 -19 56 -26 31 -35 86 -17 97 12 8 21 -18 21
-61 0 -23 4 -33 13 -30 16 5 14 81 -3 101 -7 9 -20 16 -29 16 -13 0 -15 9 -13
45 6 67 32 53 32 -17 0 -19 4 -28 13 -25 20 7 14 87 -8 104 -23 16 -28 16 -43
1z"/>
<path d="M3249 993 c-1 -5 0 -21 1 -38 2 -26 0 -27 -14 -16 -14 12 -16 9 -16
-28 0 -49 13 -53 34 -9 18 35 21 98 6 98 -5 0 -10 -3 -11 -7z"/>
<path d="M993 973 c-47 -6 -41 -23 7 -23 29 0 40 4 40 15 0 8 -3 14 -7 13 -5
0 -23 -3 -40 -5z"/>
<path d="M1471 923 c1 -32 7 -61 13 -65 8 -6 7 -8 -1 -8 -9 0 -13 -20 -13 -64
0 -42 4 -66 13 -69 10 -4 10 -6 0 -6 -21 -1 -15 -39 7 -51 39 -21 95 15 70 45
-9 10 -9 15 -1 15 6 0 11 12 11 26 0 24 -3 26 -29 21 -20 -4 -31 -2 -35 8 -4
12 2 14 27 12 27 -2 33 2 35 22 3 22 1 23 -27 18 -34 -7 -43 8 -12 18 32 10
46 32 31 50 -9 10 -9 15 -1 15 6 0 11 12 11 26 0 24 -3 26 -30 21 -22 -5 -30
-3 -30 8 0 8 -9 15 -20 15 -18 0 -20 -6 -19 -57z"/>
<path d="M2510 935 c0 -42 12 -60 23 -32 7 18 -4 77 -14 77 -5 0 -9 -20 -9
-45z"/>
<path d="M2540 970 c0 -5 11 -10 25 -10 14 0 28 0 32 -1 4 0 9 4 11 10 2 7
-11 11 -32 11 -20 0 -36 -4 -36 -10z"/>
<path d="M2792 953 l3 -27 100 3 c55 1 103 5 108 8 22 14 -14 23 -89 23 -49 0
-84 4 -84 10 0 6 -9 10 -21 10 -16 0 -20 -5 -17 -27z"/>
<path d="M1075 946 c-84 -19 -100 -25 -103 -43 -3 -18 8 -22 105 -42 59 -13
119 -25 131 -28 20 -5 23 -2 20 18 -2 18 -11 25 -33 29 -42 7 -44 33 -3 45 18
6 34 18 36 28 5 23 -24 21 -153 -7z m32 -42 c-3 -3 -12 -4 -19 -1 -8 3 -5 6 6
6 11 1 17 -2 13 -5z"/>
<path d="M2187 963 c-11 -10 -8 -63 3 -63 6 0 10 16 10 35 0 36 -2 40 -13 28z"/>
<path d="M2410 931 c0 -44 19 -58 22 -16 0 14 1 30 2 37 1 6 -5 13 -11 16 -9
2 -13 -9 -13 -37z"/>
<path d="M3173 943 c-9 -15 -13 -16 -24 -5 -17 16 -29 15 -29 -3 0 -8 4 -15
10 -15 5 0 1 -16 -10 -36 -23 -39 -20 -51 17 -65 19 -7 32 -6 51 7 l24 16 -21
21 c-19 19 -24 20 -44 8 l-22 -13 22 23 c19 19 24 20 38 9 21 -17 30 -7 11 13
-14 13 -14 16 -1 21 18 7 20 36 2 36 -6 0 -17 -8 -24 -17z"/>
<path d="M1597 943 c-13 -12 -7 -43 8 -43 9 0 15 9 15 25 0 24 -10 32 -23 18z"/>
<path d="M2115 920 c-3 -5 -1 -10 5 -10 8 0 11 -22 9 -69 -3 -47 1 -74 10 -85
16 -18 42 -21 58 -5 8 8 18 6 36 -5 22 -15 26 -15 47 2 12 10 26 36 31 58 8
37 8 37 5 4 -2 -19 -6 -43 -11 -52 -6 -15 -2 -18 24 -18 17 0 31 5 31 10 0 6
-4 10 -8 10 -10 0 1 87 13 98 4 4 10 1 12 -5 7 -20 23 -15 23 7 0 18 -6 20
-85 19 -85 -2 -86 -2 -101 -32 -9 -16 -14 -40 -11 -53 2 -13 1 -21 -4 -19 -4
3 -10 -1 -13 -7 -3 -7 -3 -3 0 10 4 16 1 22 -10 22 -11 0 -16 9 -16 30 0 23 4
30 20 30 11 0 20 5 20 10 0 6 -9 10 -20 10 -15 0 -20 7 -20 25 0 18 -5 25 -19
25 -11 0 -23 -4 -26 -10z m163 -93 c4 -28 -13 -67 -28 -67 -11 0 -14 83 -3 94
13 12 28 0 31 -27z"/>
<path d="M2809 901 c-20 -16 -22 -23 -13 -38 15 -24 84 -31 84 -9 0 10 -10 16
-27 17 -25 2 -26 2 -5 6 15 3 32 -3 47 -17 17 -16 33 -21 61 -18 32 3 39 7 45
32 5 16 6 33 3 38 -3 4 -43 8 -88 8 -68 0 -88 -4 -107 -19z m154 -28 c-7 -2
-21 -2 -30 0 -10 3 -4 5 12 5 17 0 24 -2 18 -5z"/>
<path d="M1249 898 c-10 -108 -3 -168 17 -168 11 0 14 20 14 90 0 73 -3 90
-15 90 -8 0 -15 -6 -16 -12z"/>
<path d="M1314 900 c-16 -6 -22 -17 -22 -42 l0 -33 79 0 c74 0 79 1 79 22 0
16 -5 20 -20 16 -14 -4 -20 0 -20 11 0 9 -12 21 -26 26 -30 12 -42 12 -70 0z
m59 -37 c-13 -2 -33 -2 -45 0 -13 2 -3 4 22 4 25 0 35 -2 23 -4z"/>
<path d="M630 840 l0 -50 120 0 120 0 0 50 0 50 -35 0 c-33 0 -34 -1 -28 -30
4 -23 2 -30 -10 -30 -9 0 -17 10 -19 22 -2 13 -11 24 -20 26 -14 3 -18 -3 -18
-23 0 -20 -4 -26 -17 -23 -13 2 -17 11 -15 31 3 25 1 27 -37 27 l-41 0 0 -50z"/>
<path d="M455 868 c-2 -7 -6 -24 -8 -38 l-4 -25 -2 26 c0 15 -8 30 -17 33 -23
9 -30 0 -15 -18 7 -8 10 -24 6 -35 -7 -23 13 -39 27 -20 6 10 7 2 3 -23 -5
-34 -4 -38 15 -38 18 0 20 6 20 75 0 45 -4 75 -10 75 -6 0 -13 -6 -15 -12z"/>
<path d="M1593 845 c-20 -41 -11 -79 24 -102 20 -14 24 -13 48 11 29 29 33 71
9 104 -24 35 -61 29 -81 -13z m62 -8 c7 -26 -10 -77 -25 -77 -11 0 -14 83 -3
93 12 13 23 7 28 -16z"/>
<path d="M1680 870 c0 -5 5 -12 10 -15 15 -9 13 -142 -2 -148 -10 -3 -10 -7
-1 -17 17 -19 43 -4 43 24 0 17 7 26 25 30 14 4 31 18 37 32 12 25 12 25 20 5
4 -12 19 -26 33 -33 22 -10 29 -8 50 12 14 13 25 18 25 12 0 -7 -4 -12 -10
-12 -5 0 -10 -4 -10 -10 0 -5 13 -10 29 -10 27 0 28 1 24 48 -4 46 13 92 24
65 8 -20 23 -15 23 7 0 19 -6 20 -87 18 l-88 -3 -17 -35 c-18 -34 -18 -34 -18
-8 0 16 -7 31 -17 36 -24 12 -93 14 -93 2z m240 -52 c0 -10 -7 -18 -15 -18 -8
0 -15 -6 -15 -14 0 -22 -19 -30 -35 -16 -25 21 -17 37 21 44 30 6 34 10 29 29
-5 17 -4 19 4 7 6 -8 11 -23 11 -32z m-165 -13 c0 -22 -5 -40 -12 -42 -9 -3
-13 9 -13 42 0 33 4 45 13 43 7 -3 12 -21 12 -43z m112 39 c-3 -3 -12 -4 -19
-1 -8 3 -5 6 6 6 11 1 17 -2 13 -5z"/>
<path d="M2028 873 c-10 -2 -18 -13 -18 -24 0 -23 6 -24 26 -4 17 17 34 20 34
6 0 -5 -9 -13 -20 -16 -11 -4 -27 -17 -36 -30 -21 -33 -3 -69 32 -62 13 2 24
0 24 -4 0 -5 9 -9 20 -9 19 0 20 5 15 63 -6 77 -23 94 -77 80z m52 -67 c0 -21
-29 -41 -41 -29 -7 7 -5 16 6 27 20 20 35 21 35 2z"/>
<path d="M590 855 c0 -8 5 -15 10 -15 6 0 10 7 10 15 0 8 -4 15 -10 15 -5 0
-10 -7 -10 -15z"/>
<path d="M589 813 c-5 -66 -1 -107 9 -111 8 -2 12 16 12 62 0 37 -4 66 -10 66
-5 0 -11 -8 -11 -17z"/>
<path d="M2722 813 c2 -14 15 -19 56 -21 l53 -3 -23 -19 c-19 -15 -21 -22 -12
-37 10 -15 25 -18 105 -18 92 0 94 0 97 24 2 15 -3 30 -12 37 -15 10 -14 12 5
17 12 3 19 12 17 19 -4 10 -40 14 -147 16 -132 2 -142 1 -139 -15z m198 -42
c0 -14 8 -21 28 -24 15 -2 -7 -4 -48 -4 -41 0 -62 2 -47 4 23 4 28 9 24 24 -4
15 0 19 19 19 17 0 24 -6 24 -19z"/>
<path d="M996 799 c-20 -16 -26 -29 -26 -60 l0 -39 130 0 c122 0 130 1 130 20
0 16 -8 19 -62 22 l-63 3 60 15 c50 12 61 19 63 38 3 19 0 23 -15 19 -86 -26
-101 -27 -129 -12 -39 20 -56 19 -88 -6z m72 -46 c2 -9 -7 -13 -27 -13 -30 0
-39 9 -24 24 11 10 46 3 51 -11z"/>
<path d="M2430 810 c0 -5 -9 -10 -20 -10 -11 0 -20 -5 -20 -11 0 -6 9 -13 20
-16 12 -3 20 -14 20 -27 0 -12 5 -27 12 -34 9 -9 9 -12 0 -12 -7 0 -12 -11
-12 -25 0 -14 6 -25 13 -25 9 0 8 -3 -2 -9 -7 -5 -22 -6 -32 -4 -13 4 -19 0
-19 -12 0 -12 6 -16 19 -12 10 2 25 1 32 -4 10 -6 11 -9 2 -9 -7 0 -13 -7 -13
-15 0 -9 -9 -15 -25 -15 -16 0 -25 -6 -25 -15 0 -11 11 -15 38 -15 24 0 32 -3
24 -9 -8 -4 -12 -19 -10 -32 3 -21 8 -24 48 -24 40 0 45 3 48 24 2 13 -2 28
-10 32 -8 5 -9 9 -2 9 22 0 24 30 4 50 -20 20 -20 20 0 20 12 0 20 -7 20 -16
0 -9 6 -14 13 -11 6 2 12 15 12 28 0 19 -6 25 -28 27 -24 3 -25 5 -12 18 8 9
12 21 8 27 -4 6 -6 26 -5 44 2 24 -2 33 -13 33 -8 0 -15 -4 -15 -10 0 -5 -9
-10 -20 -10 -11 0 -20 7 -20 15 0 10 10 15 34 15 36 0 51 17 34 41 -7 11 -11
11 -15 2 -6 -15 -49 -17 -58 -3 -3 6 -10 10 -16 10 -5 0 -9 -4 -9 -10z m63
-307 c-7 -2 -19 -2 -25 0 -7 3 -2 5 12 5 14 0 19 -2 13 -5z"/>
<path d="M1355 803 c-51 -6 -63 -16 -63 -57 0 -33 0 -34 39 -29 21 3 46 2 56
-3 13 -6 3 -10 -37 -14 -38 -3 -56 -10 -58 -20 -2 -12 10 -15 58 -15 l60 0 0
73 c0 39 -3 71 -7 70 -5 -1 -26 -3 -48 -5z m45 -43 c0 -5 -18 -10 -39 -10 -22
0 -43 5 -46 10 -4 6 12 10 39 10 25 0 46 -4 46 -10z"/>
<path d="M1429 773 c-1 -10 -3 -28 -4 -40 -1 -14 3 -23 11 -23 10 0 14 13 14
40 0 39 -19 58 -21 23z"/>
<path d="M636 729 c-4 -29 -3 -55 1 -59 4 -4 38 -5 76 -2 66 4 67 5 67 33 0
21 5 29 18 28 10 0 12 -3 5 -6 -7 -2 -13 -16 -13 -29 0 -21 4 -24 40 -24 l40
0 0 55 0 55 -65 0 -65 0 0 -30 c0 -25 -4 -30 -22 -29 -13 0 -17 3 -10 6 6 2
12 16 12 29 0 21 -4 24 -39 24 l-38 0 -7 -51z"/>
<path d="M2712 703 c2 -50 7 -78 16 -81 6 -2 12 3 12 12 0 9 8 16 20 16 18 0
20 7 20 63 l0 62 -35 3 -36 2 3 -77z"/>
<path d="M3020 735 l0 -44 80 0 c44 0 80 4 80 10 0 5 -4 9 -10 9 -5 0 -10 16
-10 35 0 47 -18 45 -23 -2 l-4 -38 -1 38 -2 37 -55 0 -55 0 0 -45z"/>
<path d="M2380 710 c0 -37 4 -50 13 -47 7 2 12 21 12 47 0 26 -5 45 -12 48 -9
2 -13 -11 -13 -48z"/>
<path d="M1582 709 c2 -16 9 -23 21 -21 16 3 21 -8 18 -35 -1 -10 27 -13 113
-13 l116 0 -6 30 c-6 28 -5 30 25 30 21 0 31 5 31 15 0 12 -14 15 -65 15 -53
0 -65 -3 -65 -16 0 -12 7 -15 29 -12 23 3 27 1 23 -14 -2 -10 -7 -16 -10 -13
-3 2 -11 0 -19 -7 -11 -8 -12 -7 -7 6 4 12 1 16 -15 16 -15 0 -19 -4 -14 -17
5 -14 4 -16 -8 -7 -8 6 -33 9 -56 8 -24 -2 -43 1 -43 7 0 5 5 9 10 9 6 0 10 7
10 15 0 9 -9 15 -22 15 -13 0 -34 3 -46 7 -21 5 -23 3 -20 -18z"/>
<path d="M1980 720 c0 -5 18 -10 40 -10 22 0 40 5 40 10 0 6 -18 10 -40 10
-22 0 -40 -4 -40 -10z"/>
<path d="M2217 722 c-33 -7 -16 -22 23 -22 28 0 40 4 40 14 0 13 -22 16 -63 8z"/>
<path d="M522 675 c0 -31 4 -45 11 -42 15 5 16 79 1 84 -7 2 -11 -14 -12 -42z"/>
<path d="M1911 697 c-5 -13 -16 -29 -25 -36 -9 -7 -16 -19 -16 -27 0 -20 19
-27 35 -14 8 7 15 8 15 3 0 -13 62 -13 78 0 8 6 12 6 12 -1 0 -11 38 -10 57 1
6 4 13 2 15 -5 3 -8 12 -9 36 0 20 7 32 7 32 1 0 -9 48 -11 81 -2 22 5 22 53
1 53 -9 0 -27 -10 -40 -22 l-24 -23 7 49 c6 39 5 48 -6 44 -8 -2 -19 -19 -24
-36 -11 -33 -29 -58 -23 -32 2 8 -2 14 -8 13 -6 -1 -9 10 -6 28 2 17 0 29 -7
29 -14 0 -31 -33 -32 -62 0 -13 -3 -17 -6 -11 -2 7 -23 18 -45 24 -36 9 -43 8
-65 -13 l-25 -23 7 43 c7 46 -9 60 -24 19z m79 -51 c0 -3 -4 -8 -10 -11 -5 -3
-10 -1 -10 4 0 6 5 11 10 11 6 0 10 -2 10 -4z"/>
<path d="M2550 685 c0 -19 5 -35 10 -35 6 0 10 16 10 35 0 19 -4 35 -10 35 -5
0 -10 -16 -10 -35z"/>
<path d="M495 700 c-4 -6 -3 -16 3 -22 13 -13 23 4 13 21 -7 10 -10 10 -16 1z"/>
<path d="M1240 685 c0 -10 7 -15 18 -13 21 4 19 22 -2 26 -10 2 -16 -3 -16
-13z"/>
<path d="M1420 651 c0 -39 4 -51 15 -51 10 0 15 11 17 35 0 19 1 41 2 47 1 7
-7 14 -16 16 -15 3 -18 -4 -18 -47z"/>
<path d="M2290 625 l0 -75 35 0 c35 0 38 4 38 45 0 105 -1 105 -38 105 l-35 0
0 -75z"/>
<path d="M2813 685 c-50 -35 -19 -66 72 -71 83 -4 115 7 115 40 0 27 -25 46
-59 46 -33 0 -27 -38 7 -43 26 -4 25 -4 -5 -6 -26 -1 -32 3 -35 22 -2 17 -10
23 -38 25 -20 1 -45 -4 -57 -13z m60 -32 c-7 -2 -21 -2 -30 0 -10 3 -4 5 12 5
17 0 24 -2 18 -5z"/>
<path d="M570 681 c0 -5 6 -12 13 -14 7 -3 5 -6 -5 -6 -14 -1 -18 -10 -18 -37
0 -27 4 -35 14 -31 8 3 13 -1 12 -11 0 -9 6 -17 14 -17 12 0 15 14 17 63 1 59
0 62 -23 62 -13 0 -24 -4 -24 -9z"/>
<path d="M880 681 c0 -12 36 -20 60 -14 34 9 22 23 -20 23 -22 0 -40 -4 -40
-9z"/>
<path d="M2585 680 c-3 -5 -3 -16 1 -22 5 -7 7 -38 6 -70 -3 -70 8 -78 102
-78 61 0 66 2 66 21 0 20 -4 21 -49 15 -43 -6 -49 -4 -54 13 -3 14 1 22 14 26
26 8 13 33 -19 37 -21 2 -29 11 -37 36 -9 33 -19 40 -30 22z m61 -137 c-7 -7
-26 7 -26 19 0 6 6 6 15 -2 9 -7 13 -15 11 -17z"/>
<path d="M1075 656 c-84 -19 -100 -25 -103 -42 -3 -18 9 -23 105 -43 59 -13
119 -25 131 -28 20 -5 23 -2 20 18 -2 18 -11 25 -33 29 -44 8 -45 36 -1 44 27
5 36 12 36 26 0 26 -24 25 -155 -4z m32 -42 c-3 -3 -12 -4 -19 -1 -8 3 -5 6 6
6 11 1 17 -2 13 -5z"/>
<path d="M3020 635 c0 -25 5 -45 10 -45 6 0 10 20 10 45 0 25 -4 45 -10 45 -5
0 -10 -20 -10 -45z"/>
<path d="M3050 635 c0 -19 5 -35 10 -35 6 0 10 16 10 35 0 19 -4 35 -10 35 -5
0 -10 -16 -10 -35z"/>
<path d="M658 653 c-22 -3 -28 -10 -28 -29 0 -24 1 -24 90 -24 53 0 90 -4 90
-10 0 -6 -34 -9 -87 -8 l-88 3 -3 -27 -3 -28 108 0 c72 0 113 4 121 12 7 7 12
36 12 65 l0 53 -92 -1 c-51 -1 -105 -4 -120 -6z"/>
<path d="M892 651 c-13 -8 -12 -64 2 -73 8 -6 7 -8 -1 -8 -8 0 -13 -13 -13
-29 0 -31 -28 -51 -42 -29 -5 8 -11 9 -15 3 -10 -13 -43 -16 -43 -4 0 5 -12 4
-26 -2 -15 -5 -35 -7 -45 -4 -15 5 -19 1 -19 -20 0 -18 4 -24 12 -19 7 5 47 7
90 5 65 -2 78 1 87 16 7 13 8 6 4 -27 -3 -25 -10 -46 -14 -48 -5 -2 -9 -21 -9
-41 0 -30 5 -40 24 -51 39 -20 57 -7 53 41 -2 27 1 43 10 46 17 7 17 33 1 33
-8 0 -12 12 -11 32 1 18 2 41 2 51 1 13 10 17 41 17 22 0 40 5 40 10 0 6 -18
10 -40 10 -37 0 -40 2 -41 28 -1 15 -1 34 0 43 2 17 -30 31 -47 20z"/>
<path d="M1540 640 c0 -5 14 -10 31 -10 22 0 32 -5 36 -20 6 -22 22 -24 122
-14 35 4 60 11 58 17 -5 15 -57 20 -73 6 -9 -8 -14 -8 -14 -1 0 7 -14 9 -34 7
-19 -3 -38 0 -41 5 -4 6 -11 8 -16 5 -5 -4 -9 -1 -9 4 0 6 -13 11 -30 11 -16
0 -30 -4 -30 -10z"/>
<path d="M1260 605 c0 -23 3 -26 23 -21 12 3 43 6 70 6 35 0 47 4 47 15 0 11
-12 15 -47 15 -27 0 -58 3 -70 6 -20 5 -23 2 -23 -21z"/>
<path d="M1516 595 c-3 -10 -16 -15 -34 -13 -15 1 -33 -1 -40 -6 -19 -11 -14
-50 8 -64 21 -13 27 -32 10 -32 -5 0 -9 5 -7 12 1 6 -6 14 -15 16 -13 2 -18
-3 -18 -16 0 -33 63 -46 74 -15 6 15 8 14 20 -2 8 -11 18 -15 26 -10 9 5 10 2
5 -14 -5 -16 -2 -21 12 -21 17 -1 17 -1 0 -11 -12 -7 -15 -17 -11 -33 3 -13 1
-27 -5 -30 -7 -4 -8 -1 -5 8 4 12 0 16 -15 16 -19 0 -21 -5 -19 -42 2 -30 8
-43 18 -43 8 0 14 8 14 17 -1 10 2 15 7 12 5 -3 9 -12 9 -20 0 -8 9 -14 19
-14 18 0 19 8 20 79 0 67 -2 80 -17 84 -10 3 -6 5 11 6 27 1 36 14 17 26 -5 3
-10 16 -10 28 0 16 6 23 20 23 15 0 20 -7 20 -27 0 -34 16 -46 58 -46 29 0 33
3 28 21 -3 12 -6 38 -6 59 0 31 -3 38 -17 35 -15 -3 -17 -12 -15 -46 2 -26 -1
-42 -7 -42 -6 0 -11 19 -11 44 0 49 3 47 -77 47 -31 -1 -43 3 -43 14 0 20 -16
19 -24 0z m44 -76 c0 -18 -4 -28 -10 -24 -5 3 -10 20 -10 36 0 18 4 28 10 24
6 -3 10 -20 10 -36z m-60 11 c0 -5 -5 -10 -11 -10 -5 0 -7 5 -4 10 3 6 8 10
11 10 2 0 4 -4 4 -10z"/>
<path d="M1816 594 c-5 -12 -14 -15 -35 -11 -51 11 -82 -60 -48 -107 17 -23
51 -17 56 9 3 16 1 17 -11 7 -20 -16 -28 -6 -28 37 0 32 1 33 13 16 8 -10 19
-15 25 -11 8 5 12 -4 12 -27 0 -40 27 -59 46 -32 10 13 13 13 17 1 8 -21 137
-22 137 -1 0 8 -4 15 -10 15 -5 0 -10 11 -10 25 0 33 22 24 37 -15 6 -17 18
-33 27 -36 20 -7 46 12 46 34 0 12 -3 13 -12 4 -16 -16 -28 -15 -28 3 0 9 9
15 25 15 18 0 25 5 25 19 0 27 -38 53 -60 41 -10 -5 -20 -7 -23 -4 -11 11 -69
6 -78 -7 -6 -10 -9 -10 -9 -2 0 9 -13 12 -41 10 -34 -3 -43 0 -47 15 -5 22
-18 23 -26 2z m82 -80 c-3 -27 -4 -26 -9 8 -3 22 -1 34 4 29 5 -5 7 -21 5 -37z
m-51 -1 c-3 -10 -5 -4 -5 12 0 17 2 24 5 18 2 -7 2 -21 0 -30z m99 -21 c-11
-10 -14 3 -8 33 l7 30 3 -28 c2 -16 1 -31 -2 -35z"/>
<path d="M2726 603 c-18 -19 -3 -33 34 -33 30 0 38 -3 34 -14 -3 -8 3 -19 15
-25 22 -12 160 -15 177 -3 14 9 24 61 13 68 -12 7 -266 13 -273 7z m212 -40
c-21 -2 -55 -2 -75 0 -21 2 -4 4 37 4 41 0 58 -2 38 -4z"/>
<path d="M2114 589 c-13 -21 14 -30 87 -27 61 2 74 6 77 21 3 15 -6 17 -77 17
-47 0 -83 -5 -87 -11z"/>
<path d="M1270 560 c-12 -7 -12 -13 -4 -27 15 -24 105 -31 124 -9 15 19 6 46
-16 46 -10 0 -14 -5 -10 -15 4 -12 -3 -15 -34 -15 -31 0 -38 3 -34 15 7 17 -4
19 -26 5z"/>
<path d="M2170 499 l0 -51 31 6 c17 3 35 6 40 6 5 0 9 10 10 23 l0 22 10 -23
c5 -13 13 -20 19 -17 5 3 10 3 10 -2 0 -4 17 -8 38 -8 36 0 37 1 37 34 0 39
-15 49 -39 26 -14 -15 -16 -15 -16 -1 0 12 -10 16 -39 16 -22 0 -42 5 -44 13
-4 9 -8 8 -16 -3 -7 -10 -11 -11 -11 -2 0 6 -7 12 -15 12 -11 0 -15 -12 -15
-51z m37 -26 c-3 -10 -5 -4 -5 12 0 17 2 24 5 18 2 -7 2 -21 0 -30z"/>
<path d="M2127 533 c-4 -3 -7 -19 -7 -35 0 -40 24 -31 28 10 3 30 -6 41 -21
25z"/>
<path d="M970 505 c0 -23 3 -25 50 -25 38 0 50 -4 50 -15 0 -11 -12 -15 -50
-15 -43 0 -50 -3 -50 -20 0 -19 7 -20 130 -20 123 0 130 1 130 20 0 18 -7 20
-60 20 -46 0 -60 3 -60 15 0 10 15 15 58 17 50 3 57 6 60 26 3 22 3 22 -127
22 l-131 0 0 -25z"/>
<path d="M2396 498 c1 -13 3 -33 3 -45 1 -20 6 -23 42 -23 28 0 39 4 36 13 -2
6 -16 12 -30 12 -24 -1 -27 3 -27 32 0 21 -5 33 -13 33 -8 0 -13 -9 -11 -22z"/>
<path d="M2550 480 c0 -19 5 -30 14 -30 20 0 26 12 19 38 -8 33 -33 27 -33 -8z"/>
<path d="M2590 503 c0 -4 9 -17 21 -29 l21 -22 -21 -11 c-23 -13 -29 -41 -8
-41 6 0 19 4 27 10 9 6 17 5 22 -3 13 -20 9 -27 -17 -27 -37 0 -33 -35 5 -49
28 -9 32 -8 42 14 8 19 8 31 0 50 -8 16 -8 26 -1 31 6 3 8 12 5 19 -2 7 1 18
7 24 17 17 1 24 -22 10 -17 -12 -23 -10 -44 9 -24 22 -37 28 -37 15z"/>
<path d="M2833 499 c-18 -5 -33 -16 -33 -24 0 -17 3 -17 83 -19 56 -2 57 -2
57 26 0 28 -15 38 -23 16 -4 -10 -7 -10 -18 0 -15 14 -21 14 -66 1z"/>
<path d="M1260 485 c0 -10 16 -15 58 -18 l57 -3 -57 -2 c-80 -3 -73 -22 7 -22
69 0 90 15 65 45 -17 21 -130 21 -130 0z"/>
<path d="M2745 460 c5 -14 2 -20 -9 -20 -9 0 -16 -4 -16 -10 0 -13 57 -13 65
0 11 18 -6 50 -26 50 -16 0 -19 -5 -14 -20z"/>
<path d="M730 435 c0 -24 2 -25 65 -25 37 0 65 4 65 10 0 21 -2 25 -12 22 -6
-1 -16 3 -24 9 -11 9 -18 8 -31 -2 -9 -8 -19 -12 -22 -11 -38 23 -41 23 -41
-3z"/>
<path d="M1412 343 c2 -77 -1 -108 -10 -111 -6 -2 -12 -11 -12 -20 0 -13 -2
-14 -8 -4 -11 16 -42 5 -42 -14 0 -10 8 -13 25 -10 25 5 29 -1 26 -36 -2 -15
6 -18 49 -18 l50 0 -1 75 c-1 72 -2 75 -25 75 -13 0 -24 4 -24 8 0 5 10 8 23
8 19 -1 22 4 24 42 2 39 0 42 -23 42 -16 0 -23 4 -18 11 3 6 17 8 30 5 19 -5
24 -2 24 12 0 13 -12 22 -39 30 -21 7 -41 12 -45 12 -3 0 -5 -48 -4 -107z m45
1 c-3 -3 -12 -4 -19 -1 -8 3 -5 6 6 6 11 1 17 -2 13 -5z"/>
<path d="M1606 434 c-3 -9 -6 -38 -6 -65 0 -42 3 -49 19 -49 20 0 21 18 6 93
-2 13 4 17 26 17 16 0 29 5 29 10 0 17 -67 12 -74 -6z"/>
<path d="M1827 444 c-3 -3 -4 -11 -1 -17 3 -9 -11 -11 -47 -8 -49 3 -52 2 -46
-18 3 -12 1 -21 -4 -21 -5 0 -9 9 -9 19 0 15 -7 19 -35 19 -19 0 -37 -3 -39
-7 -3 -4 1 -25 9 -47 14 -42 40 -57 48 -27 4 17 5 17 6 1 2 -31 28 -19 44 20
14 35 15 36 16 10 1 -16 -3 -28 -9 -28 -5 0 -10 -4 -10 -10 0 -5 14 -10 30
-10 27 0 30 3 24 24 -4 16 -1 25 12 30 14 5 16 2 11 -23 l-6 -29 69 0 c50 0
73 5 82 16 11 13 10 15 -9 10 -16 -4 -23 -2 -23 8 0 8 3 13 8 13 34 -6 44 19
16 42 -12 10 -20 10 -35 1 -16 -11 -19 -9 -19 8 0 25 -18 26 -36 3 -12 -17
-13 -16 -14 5 0 20 -19 30 -33 16z m-140 -66 c-3 -8 -6 -5 -6 6 -1 11 2 17 5
13 3 -3 4 -12 1 -19z m180 -25 c-3 -10 -5 -4 -5 12 0 17 2 24 5 18 2 -7 2 -21
0 -30z m40 5 c-3 -7 -5 -2 -5 12 0 14 2 19 5 13 2 -7 2 -19 0 -25z"/>
<path d="M2045 443 c-22 -6 -55 -32 -55 -44 0 -5 9 -17 21 -27 17 -17 18 -20
5 -25 -20 -8 -21 -41 -1 -57 20 -17 54 -3 61 26 5 20 -1 33 -26 59 -20 20 -28
35 -21 39 14 9 31 -1 31 -20 0 -17 20 -19 21 -1 1 6 5 -10 10 -37 4 -27 15
-56 23 -64 14 -14 17 -14 36 3 19 17 27 64 13 78 -3 4 -15 0 -25 -10 -17 -15
-18 -15 -18 4 0 20 34 38 51 28 13 -9 21 -77 10 -88 -18 -18 -12 -26 20 -25
23 1 29 5 26 17 -3 9 -7 23 -9 31 -3 8 -3 12 -1 8 10 -17 33 -7 47 20 15 27
15 26 12 -24 l-4 -51 67 2 c36 2 71 3 77 4 13 1 6 100 -8 118 -6 7 -29 11 -58
9 -27 -1 -47 1 -44 5 8 13 -17 22 -29 10 -9 -9 -8 -14 3 -22 11 -7 5 -8 -20
-5 -19 3 -56 8 -82 11 -34 4 -48 11 -48 21 0 10 -7 14 -17 12 -10 -2 -17 -10
-15 -16 1 -7 -2 -12 -8 -12 -5 0 -10 7 -10 15 0 16 -2 16 -35 8z m295 -72 c0
-11 -5 -32 -12 -48 l-12 -28 -6 40 c-7 46 -4 55 16 55 8 0 14 -9 14 -19z m46
-58 c-3 -8 -10 -11 -16 -8 -10 6 -6 42 8 75 8 19 16 -46 8 -67z m-345 -6 c-10
-9 -11 -8 -5 6 3 10 9 15 12 12 3 -3 0 -11 -7 -18z"/>
<path d="M2807 433 c-11 -10 -8 -73 3 -73 6 0 10 18 10 40 0 41 -2 45 -13 33z"/>
<path d="M2830 424 c0 -11 8 -14 27 -12 39 4 42 28 4 28 -21 0 -31 -5 -31 -16z"/>
<path d="M1275 414 c-16 -17 -19 -114 -3 -114 9 0 9 -3 0 -12 -35 -35 18 -62
62 -32 15 9 29 14 33 10 3 -3 1 -6 -5 -6 -7 0 -12 -5 -12 -11 0 -6 10 -9 23
-7 16 2 22 10 22 28 0 32 -33 38 -69 14 -14 -9 -26 -12 -26 -6 0 6 -3 17 -6
26 -5 13 3 16 50 16 31 0 56 5 56 10 0 6 -25 10 -55 10 -30 0 -55 5 -55 10 0
6 25 10 55 10 41 0 55 4 55 14 0 8 -8 17 -17 19 -17 4 -17 5 0 6 9 0 17 7 17
14 0 16 -108 17 -125 1z"/>
<path d="M2499 423 c-40 -6 -64 -38 -64 -84 0 -22 6 -44 13 -48 10 -6 10 -11
-3 -21 -16 -14 -20 -47 -6 -68 12 -20 41 -11 65 21 16 22 20 41 19 102 -1 41
3 75 8 75 5 0 9 7 9 15 0 8 -3 14 -7 14 -5 -1 -20 -4 -34 -6z m-9 -73 c0 -22
-4 -40 -10 -40 -5 0 -10 18 -10 40 0 22 5 40 10 40 6 0 10 -18 10 -40z m-4
-116 c-4 -14 -14 -24 -24 -24 -16 1 -16 1 1 11 10 6 17 23 18 42 1 18 3 24 6
14 3 -10 2 -29 -1 -43z"/>
<path d="M2758 413 c-26 -4 -41 -23 -18 -23 6 0 10 -4 10 -10 0 -5 -11 -10
-25 -10 -16 0 -25 -6 -25 -15 0 -11 11 -15 40 -15 22 0 41 3 41 8 5 30 8 72 6
71 -1 -1 -14 -4 -29 -6z"/>
<path d="M790 390 c0 -5 11 -10 25 -10 14 0 25 5 25 10 0 6 -11 10 -25 10 -14
0 -25 -4 -25 -10z"/>
<path d="M1000 377 c-19 -10 -25 -20 -25 -47 0 -46 29 -60 122 -60 104 0 145
25 128 78 -6 20 -49 45 -59 35 -11 -11 -6 -41 7 -46 26 -11 -19 -27 -78 -27
-65 0 -100 13 -77 29 8 4 12 18 10 29 -3 19 -5 20 -28 9z"/>
<path d="M1060 380 c0 -5 14 -10 30 -10 29 0 35 -8 31 -39 -2 -7 4 -11 11 -9
7 3 14 18 16 35 3 29 2 30 -42 31 -26 1 -46 -2 -46 -8z"/>
<path d="M2548 305 c3 -45 1 -65 -7 -65 -7 0 -9 -4 -6 -10 3 -5 19 -10 36 -10
l29 0 0 75 0 75 -28 0 -28 0 4 -65z"/>
<path d="M1050 345 c0 -10 10 -15 30 -15 20 0 30 5 30 15 0 10 -10 15 -30 15
-20 0 -30 -5 -30 -15z"/>
<path d="M2697 323 c-12 -11 -8 -23 8 -23 8 0 15 7 15 15 0 16 -12 20 -23 8z"/>
<path d="M1600 286 c0 -25 0 -25 96 -25 93 0 95 1 92 22 -3 21 -9 22 -95 25
l-93 3 0 -25z"/>
<path d="M2638 303 c-42 -6 -36 -33 7 -33 28 0 35 4 35 20 0 11 -3 19 -7 19
-5 -1 -20 -4 -35 -6z"/>
<path d="M1830 275 c0 -8 5 -15 10 -15 6 0 5 -6 -2 -14 -7 -8 -15 -10 -18 -6
-9 14 -60 -1 -61 -19 0 -11 -3 -9 -9 7 -6 14 -18 22 -33 22 -14 0 -31 -10 -40
-22 -13 -18 -16 -19 -16 -7 -1 19 -21 29 -57 29 -14 0 -35 5 -46 11 -16 9 -24
7 -40 -8 -19 -19 -16 -53 4 -53 5 0 2 -7 -6 -16 -9 -8 -16 -19 -16 -24 0 -12
79 -17 92 -5 7 6 9 6 6 0 -8 -14 9 -55 22 -55 5 0 10 11 10 23 0 29 45 55 54
31 6 -15 66 -20 66 -5 0 6 12 6 32 0 21 -6 34 -5 36 0 2 6 10 7 19 4 9 -4 21
1 29 12 13 17 14 14 14 -28 0 -41 3 -47 21 -47 19 0 21 5 17 40 -2 28 0 40 9
40 7 0 13 7 13 15 0 8 -7 15 -15 15 -8 0 -15 4 -15 9 0 6 9 9 20 8 16 -1 20
-8 20 -34 0 -34 16 -43 38 -21 9 9 12 8 12 -5 0 -13 9 -17 34 -17 30 0 35 4
39 28 l4 27 7 -32 c12 -45 36 -32 36 19 0 38 1 40 26 34 22 -6 25 -4 20 9 -3
9 -6 21 -6 27 0 6 -11 8 -25 6 -14 -3 -28 -1 -31 3 -12 19 -24 7 -25 -23 0
-30 -1 -31 -9 -10 -15 35 -57 30 -74 -10 l-14 -33 -1 53 c-1 39 -5 52 -16 52
-8 0 -15 -7 -15 -15 0 -8 6 -15 13 -15 8 0 7 -3 -3 -10 -9 -5 -19 -5 -27 1
-17 15 -53 -7 -53 -32 0 -11 -4 -17 -10 -14 -5 3 -10 24 -10 46 0 28 -4 39
-15 39 -8 0 -15 -7 -15 -15z m-241 -77 c-1 -31 -1 -31 -8 -8 -5 14 -6 28 -4
33 9 15 13 6 12 -25z m51 7 c0 -8 -2 -15 -4 -15 -2 0 -6 7 -10 15 -3 8 -1 15
4 15 6 0 10 -7 10 -15z m87 9 c-3 -3 -12 -4 -19 -1 -8 3 -5 6 6 6 11 1 17 -2
13 -5z m320 0 c-3 -3 -12 -4 -19 -1 -8 3 -5 6 6 6 11 1 17 -2 13 -5z m-217
-19 c0 -9 -9 -15 -25 -15 -16 0 -25 6 -25 15 0 9 9 15 25 15 16 0 25 -6 25
-15z"/>
<path d="M2170 260 c0 -5 14 -10 30 -10 17 0 30 5 30 10 0 6 -13 10 -30 10
-16 0 -30 -4 -30 -10z"/>
<path d="M2240 260 c0 -5 14 -10 30 -10 17 0 30 5 30 10 0 6 -13 10 -30 10
-16 0 -30 -4 -30 -10z"/>
<path d="M2362 258 c6 -18 58 -20 58 -2 0 9 -11 14 -31 14 -20 0 -29 -4 -27
-12z"/>
<path d="M1130 252 c-6 -2 -10 -14 -10 -26 0 -21 4 -23 63 -22 56 1 62 3 65
23 3 19 -2 21 -53 25 -30 1 -60 2 -65 0z"/>
<path d="M1050 240 c0 -5 7 -10 15 -10 8 0 15 5 15 10 0 6 -7 10 -15 10 -8 0
-15 -4 -15 -10z"/>
<path d="M1090 230 c0 -11 5 -20 10 -20 6 0 10 9 10 20 0 11 -4 20 -10 20 -5
0 -10 -9 -10 -20z"/>
<path d="M2190 195 c0 -32 2 -35 30 -35 17 0 30 5 30 10 0 6 5 10 11 10 5 0 8
-4 5 -9 -6 -10 45 -18 85 -13 22 3 26 8 27 37 l1 34 -94 0 -95 1 0 -35z"/>
<path d="M1310 190 c0 -16 5 -30 10 -30 6 0 10 14 10 30 0 17 -4 30 -10 30 -5
0 -10 -13 -10 -30z"/>
<path d="M2142 155 c0 -42 17 -73 26 -47 2 7 19 12 38 12 25 0 34 4 34 16 0
13 -8 15 -35 12 -35 -4 -39 0 -36 35 1 9 -4 17 -13 17 -10 0 -14 -12 -14 -45z"/>
<path d="M1656 128 c-9 -5 -16 -14 -16 -19 0 -14 62 -7 67 7 5 15 -30 24 -51
12z"/>
<path d="M2109 126 c-2 -2 -20 -6 -39 -8 -34 -4 -49 -27 -22 -35 6 -3 12 0 12
6 0 6 14 11 30 11 20 0 30 5 30 15 0 15 -3 18 -11 11z"/>
<path d="M1753 112 c-26 -2 -43 -8 -43 -16 0 -8 24 -13 80 -14 71 -3 80 -1 80
15 0 19 -21 22 -117 15z"/>
<path d="M1945 102 c-13 -13 -3 -22 25 -22 19 0 30 5 30 14 0 13 -43 20 -55 8z"/>
</g>
</svg>
