<svg id="svg" version="1.1" xmlns="http://www.w3.org/2000/svg" xmlns:xlink="http://www.w3.org/1999/xlink" width="400" height="400" viewBox="0, 0, 400,400"><g id="svgg"><path id="path0" d="M205.695 121.914 C 205.198 122.297,204.715 123.002,204.623 123.479 C 204.531 123.957,204.245 124.741,203.988 125.222 C 203.606 125.935,203.620 126.037,204.060 125.771 C 204.508 125.502,204.511 125.557,204.077 126.092 C 203.295 127.057,201.978 130.856,202.533 130.544 C 202.835 130.375,202.823 130.473,202.500 130.821 C 202.225 131.118,202.000 131.875,202.000 132.504 C 202.000 133.305,201.851 133.561,201.500 133.359 C 201.225 133.201,201.128 133.213,201.284 133.387 C 201.440 133.560,201.312 134.315,200.998 135.066 C 200.685 135.816,200.602 136.322,200.815 136.191 C 201.027 136.059,200.803 136.627,200.317 137.452 C 199.830 138.276,199.650 138.816,199.917 138.652 C 200.183 138.487,200.003 139.027,199.517 139.852 C 199.030 140.676,198.850 141.217,199.116 141.052 C 199.382 140.887,199.600 140.943,199.600 141.176 C 199.600 141.409,199.439 141.600,199.243 141.600 C 198.845 141.600,198.422 142.509,198.146 143.956 C 198.046 144.481,197.686 145.561,197.345 146.356 C 196.608 148.078,196.471 148.640,196.431 150.124 C 196.414 150.742,196.250 151.155,196.067 151.041 C 195.721 150.828,195.698 150.924,195.560 153.114 C 195.515 153.837,195.325 154.523,195.139 154.638 C 194.952 154.753,194.800 155.197,194.800 155.624 C 194.800 156.051,194.590 156.400,194.333 156.400 C 194.077 156.400,193.985 156.518,194.130 156.663 C 194.275 156.808,194.195 157.165,193.954 157.456 C 193.712 157.747,193.423 158.664,193.313 159.493 C 193.202 160.322,192.996 161.090,192.856 161.200 C 192.577 161.418,192.307 162.311,192.282 163.100 C 192.274 163.375,192.156 163.600,192.021 163.600 C 191.885 163.600,191.735 164.077,191.687 164.660 C 191.639 165.242,191.397 165.962,191.151 166.260 C 190.904 166.557,190.810 166.800,190.941 166.800 C 191.073 166.800,190.989 167.295,190.755 167.900 C 190.520 168.505,190.268 169.270,190.194 169.600 C 189.624 172.145,188.919 174.386,188.744 174.211 C 188.628 174.095,188.533 174.248,188.533 174.550 C 188.533 174.853,188.171 176.068,187.727 177.250 C 186.288 181.087,186.030 182.029,186.495 181.741 C 186.779 181.566,186.802 181.666,186.565 182.038 C 185.930 183.033,185.279 185.199,185.691 184.944 C 185.907 184.811,185.775 185.172,185.398 185.747 C 185.021 186.322,184.625 187.443,184.518 188.238 C 184.411 189.033,183.943 190.329,183.478 191.118 C 182.903 192.091,182.819 192.444,183.216 192.217 C 183.690 191.946,183.706 191.984,183.300 192.421 C 183.025 192.718,182.800 193.385,182.800 193.904 C 182.800 194.446,182.626 194.740,182.390 194.594 C 182.165 194.455,182.006 194.489,182.037 194.670 C 182.268 195.997,181.944 197.615,181.500 197.359 C 181.225 197.201,181.128 197.213,181.284 197.387 C 181.440 197.560,181.312 198.315,180.998 199.066 C 180.685 199.816,180.602 200.322,180.815 200.191 C 181.027 200.059,180.803 200.627,180.317 201.452 C 179.830 202.276,179.650 202.816,179.917 202.652 C 180.183 202.487,180.003 203.027,179.517 203.852 C 179.030 204.676,178.850 205.216,179.117 205.052 C 179.383 204.887,179.223 205.393,178.761 206.176 C 178.299 206.959,178.033 207.600,178.171 207.600 C 178.308 207.600,178.141 208.140,177.800 208.800 C 177.459 209.460,177.279 210.000,177.400 210.000 C 177.521 210.000,177.342 210.538,177.002 211.196 C 176.662 211.854,176.387 212.484,176.392 212.596 C 176.457 214.236,176.342 215.211,176.100 215.062 C 175.935 214.960,175.760 215.264,175.711 215.738 C 175.511 217.673,175.385 218.211,175.081 218.435 C 174.906 218.565,174.711 219.105,174.648 219.635 C 174.586 220.166,174.235 221.269,173.867 222.087 C 173.500 222.905,173.200 223.940,173.200 224.387 C 173.200 224.834,173.020 225.200,172.800 225.200 C 172.580 225.200,172.421 225.335,172.447 225.500 C 172.620 226.593,172.338 228.009,171.990 227.794 C 171.765 227.655,171.606 227.689,171.637 227.870 C 171.836 229.016,171.542 230.811,171.190 230.594 C 170.965 230.455,170.806 230.489,170.837 230.670 C 171.056 231.929,170.744 233.613,170.338 233.362 C 170.084 233.205,169.982 233.247,170.111 233.455 C 170.239 233.664,169.928 234.859,169.419 236.112 C 168.910 237.364,168.657 238.288,168.857 238.165 C 169.056 238.042,168.858 238.584,168.417 239.370 C 167.975 240.157,167.707 240.800,167.821 240.800 C 167.935 240.800,167.822 241.185,167.570 241.655 C 167.319 242.125,167.026 243.070,166.919 243.755 C 166.812 244.440,166.563 245.197,166.366 245.437 C 166.168 245.677,166.106 245.973,166.227 246.094 C 166.348 246.215,166.173 246.970,165.838 247.772 C 165.503 248.574,165.402 249.122,165.615 248.991 C 165.827 248.859,165.603 249.427,165.117 250.252 C 164.542 251.225,164.437 251.627,164.816 251.399 C 165.285 251.116,165.309 251.160,164.935 251.623 C 164.260 252.461,162.804 256.445,163.280 256.151 C 163.502 256.014,163.355 256.402,162.954 257.014 C 162.553 257.626,162.193 258.863,162.153 259.763 C 162.113 260.663,161.920 261.368,161.725 261.328 C 161.530 261.289,161.337 261.657,161.296 262.146 C 161.256 262.635,160.932 263.837,160.576 264.818 C 160.221 265.798,159.838 267.140,159.726 267.800 C 159.613 268.460,159.387 269.090,159.222 269.200 C 158.957 269.377,158.361 271.265,158.401 271.802 C 158.409 271.916,158.143 272.538,157.808 273.184 C 156.635 275.453,157.289 278.679,158.824 278.192 C 159.261 278.054,159.600 278.133,159.600 278.373 C 159.600 278.654,161.276 278.790,164.500 278.772 C 167.610 278.754,169.108 278.618,168.600 278.400 C 168.128 278.197,172.645 278.047,179.600 278.034 C 187.356 278.020,191.194 278.145,190.800 278.400 C 190.332 278.702,190.443 278.789,191.300 278.794 C 191.905 278.797,192.400 278.608,192.400 278.373 C 192.400 278.138,192.730 278.051,193.133 278.179 C 194.227 278.526,195.539 276.751,196.220 274.000 C 196.301 273.670,196.664 272.590,197.026 271.600 C 197.388 270.610,197.772 269.260,197.880 268.600 C 197.987 267.940,198.264 267.171,198.495 266.890 C 198.725 266.610,198.810 266.277,198.683 266.149 C 198.555 266.022,198.638 265.441,198.866 264.859 C 199.094 264.276,199.370 263.260,199.479 262.600 C 199.589 261.940,199.886 261.268,200.139 261.106 C 200.393 260.944,200.459 260.809,200.286 260.806 C 200.113 260.803,200.178 260.415,200.430 259.945 C 200.681 259.475,200.975 258.530,201.083 257.845 C 201.191 257.160,201.486 256.468,201.739 256.306 C 201.993 256.144,202.043 256.009,201.851 256.006 C 201.659 256.003,201.713 255.746,201.971 255.435 C 202.406 254.911,202.866 253.281,202.913 252.100 C 202.924 251.825,203.113 251.600,203.333 251.600 C 203.553 251.600,203.623 251.490,203.488 251.355 C 203.353 251.220,203.482 250.455,203.773 249.655 C 204.065 248.855,204.526 247.390,204.796 246.400 C 205.067 245.410,205.628 243.721,206.044 242.647 C 206.460 241.572,206.800 240.391,206.800 240.022 C 206.800 239.652,207.160 238.605,207.600 237.694 C 208.040 236.784,208.400 235.501,208.400 234.843 C 208.400 234.185,208.580 233.536,208.800 233.400 C 209.020 233.264,209.200 232.653,209.200 232.043 C 209.200 231.433,209.325 230.808,209.478 230.655 C 209.631 230.502,209.800 230.157,209.853 229.888 C 209.906 229.620,210.298 228.410,210.723 227.200 C 211.148 225.990,211.732 224.190,212.020 223.200 C 212.308 222.210,212.689 221.204,212.867 220.965 C 213.045 220.726,213.237 219.871,213.295 219.066 C 213.353 218.260,213.546 217.601,213.724 217.601 C 213.902 217.600,213.959 217.458,213.852 217.284 C 213.744 217.110,213.890 216.435,214.176 215.784 C 214.461 215.133,215.277 212.710,215.989 210.400 C 216.700 208.090,217.444 205.887,217.641 205.505 C 217.839 205.123,218.000 204.446,218.000 204.000 C 218.000 203.554,218.165 202.877,218.367 202.495 C 218.568 202.113,219.057 200.720,219.452 199.400 C 220.320 196.499,220.288 196.642,220.350 195.376 C 220.378 194.813,220.542 194.440,220.715 194.548 C 220.888 194.655,221.070 194.260,221.119 193.671 C 221.167 193.082,221.385 192.540,221.603 192.467 C 221.822 192.393,222.000 191.754,222.000 191.047 C 222.000 190.339,222.184 189.576,222.408 189.352 C 222.943 188.817,224.442 184.708,224.193 184.459 C 224.087 184.353,224.000 184.507,224.000 184.800 C 224.000 185.093,223.884 185.218,223.743 185.076 C 223.602 184.935,223.672 184.590,223.899 184.310 C 224.446 183.636,225.655 180.108,225.849 178.618 C 225.934 177.968,226.183 177.257,226.402 177.038 C 226.621 176.819,226.800 176.136,226.800 175.520 C 226.800 174.904,226.991 174.400,227.224 174.400 C 227.457 174.400,227.556 174.252,227.444 174.071 C 227.332 173.891,227.518 173.216,227.857 172.571 C 228.195 171.927,228.491 170.826,228.515 170.125 C 228.538 169.424,228.682 168.927,228.834 169.021 C 228.986 169.115,229.202 168.699,229.315 168.096 C 229.592 166.609,229.852 165.717,230.626 163.600 C 230.988 162.610,231.373 161.260,231.481 160.600 C 231.590 159.940,231.796 159.310,231.939 159.200 C 232.083 159.090,232.250 158.730,232.311 158.400 C 232.373 158.070,232.584 157.440,232.780 157.000 C 233.198 156.065,233.715 154.111,233.820 153.073 C 233.860 152.674,234.068 151.954,234.283 151.473 C 234.745 150.435,235.966 146.881,236.188 145.926 C 236.274 145.555,236.543 144.880,236.786 144.426 C 237.029 143.972,237.127 143.600,237.004 143.600 C 236.880 143.600,237.057 143.064,237.396 142.409 C 237.734 141.753,238.067 140.538,238.134 139.709 C 238.201 138.879,238.558 137.503,238.928 136.651 C 239.298 135.799,239.600 134.869,239.600 134.584 C 239.600 134.299,239.957 133.232,240.394 132.213 C 240.876 131.090,240.994 130.477,240.694 130.657 C 240.308 130.889,240.304 130.825,240.677 130.363 C 241.364 129.513,242.860 125.915,242.411 126.193 C 242.204 126.321,242.290 125.932,242.603 125.328 C 243.044 124.478,243.063 124.159,242.686 123.915 C 242.307 123.669,242.310 123.529,242.701 123.276 C 243.079 123.031,242.991 122.726,242.342 122.030 C 241.577 121.209,241.443 121.180,241.117 121.762 C 240.916 122.122,240.612 122.331,240.443 122.227 C 240.274 122.122,232.799 121.985,223.831 121.921 C 214.864 121.857,207.443 121.669,207.340 121.503 C 207.061 121.052,206.697 121.143,205.695 121.914 M82.800 226.979 C 82.800 227.089,83.340 227.459,84.000 227.800 C 84.660 228.141,85.200 228.331,85.200 228.221 C 85.200 228.111,84.660 227.741,84.000 227.400 C 83.340 227.059,82.800 226.869,82.800 226.979 M176.900 278.698 C 179.045 278.770,182.555 278.770,184.700 278.698 C 186.845 278.626,185.090 278.567,180.800 278.567 C 176.510 278.567,174.755 278.626,176.900 278.698 " stroke="none" fill="#3c5b63" fill-rule="evenodd"></path><path id="path1" d="M207.336 121.496 C 207.441 121.666,214.858 121.857,223.818 121.921 C 232.779 121.985,240.288 122.073,240.505 122.118 C 240.722 122.163,240.980 121.982,241.078 121.715 C 241.216 121.341,237.380 121.226,224.200 121.209 C 214.820 121.196,207.230 121.326,207.336 121.496 M146.841 137.061 C 145.278 137.865,144.000 138.675,144.000 138.861 C 144.000 139.048,143.832 139.200,143.626 139.200 C 143.420 139.200,141.305 140.256,138.926 141.546 C 136.547 142.836,132.350 145.109,129.600 146.598 C 126.850 148.086,124.510 149.415,124.400 149.552 C 124.290 149.688,122.866 150.430,121.235 151.200 C 119.605 151.970,118.075 152.787,117.835 153.016 C 117.596 153.245,115.690 154.304,113.600 155.369 C 111.510 156.435,109.515 157.553,109.168 157.854 C 108.820 158.155,108.415 158.281,108.268 158.134 C 108.120 157.987,108.000 158.077,108.000 158.333 C 108.000 158.590,107.745 158.800,107.433 158.800 C 107.122 158.800,106.807 158.935,106.733 159.100 C 106.660 159.265,105.520 159.913,104.200 160.540 C 102.880 161.167,100.090 162.690,98.000 163.923 C 95.910 165.157,93.993 166.200,93.739 166.242 C 93.280 166.317,87.580 169.582,87.200 169.987 C 87.090 170.104,85.425 171.002,83.500 171.983 C 81.575 172.963,80.000 173.919,80.000 174.106 C 80.000 174.294,79.832 174.344,79.628 174.217 C 79.423 174.091,79.158 174.144,79.040 174.335 C 78.922 174.527,77.109 175.529,75.012 176.563 C 72.916 177.597,71.200 178.613,71.200 178.821 C 71.200 179.030,71.065 179.163,70.900 179.118 C 70.576 179.029,67.928 180.350,67.600 180.764 C 67.490 180.903,66.860 181.270,66.200 181.580 C 65.003 182.142,64.689 182.256,64.075 182.350 C 62.016 182.667,61.981 182.957,62.009 199.624 C 62.037 216.267,62.103 216.800,64.144 216.800 C 64.360 216.800,64.821 217.036,65.169 217.325 C 65.516 217.614,66.610 218.191,67.600 218.607 C 68.590 219.023,69.826 219.684,70.347 220.076 C 70.868 220.468,71.453 220.691,71.647 220.571 C 71.841 220.451,72.000 220.553,72.000 220.797 C 72.000 221.042,72.540 221.430,73.200 221.660 C 73.860 221.890,74.400 222.251,74.400 222.463 C 74.400 222.674,74.559 222.749,74.753 222.629 C 74.947 222.509,75.742 222.843,76.520 223.372 C 77.298 223.900,78.040 224.227,78.167 224.099 C 78.295 223.971,78.400 224.049,78.400 224.273 C 78.400 224.496,79.165 225.016,80.100 225.428 C 81.035 225.841,81.890 226.275,82.000 226.394 C 82.110 226.512,83.730 227.380,85.600 228.322 C 87.470 229.264,89.540 230.380,90.200 230.801 C 90.860 231.223,92.570 232.160,94.000 232.884 C 95.430 233.608,96.732 234.380,96.894 234.600 C 97.056 234.820,97.191 234.837,97.194 234.638 C 97.197 234.439,97.560 234.602,98.000 235.000 C 98.440 235.398,98.800 235.593,98.800 235.433 C 98.800 235.274,99.083 235.426,99.429 235.771 C 99.774 236.117,100.314 236.400,100.629 236.400 C 100.943 236.400,101.200 236.537,101.200 236.705 C 101.200 236.873,102.505 237.638,104.100 238.405 C 105.695 239.172,107.060 239.935,107.133 240.100 C 107.207 240.265,107.509 240.400,107.805 240.400 C 108.101 240.400,108.585 240.642,108.881 240.939 C 109.178 241.235,110.675 242.112,112.210 242.888 C 116.240 244.927,117.695 245.738,118.286 246.276 C 118.573 246.537,119.437 246.978,120.204 247.256 C 120.972 247.534,121.600 247.935,121.600 248.147 C 121.600 248.359,121.720 248.413,121.868 248.266 C 122.015 248.119,122.420 248.248,122.768 248.553 C 123.115 248.858,124.750 249.803,126.400 250.651 C 128.050 251.500,129.638 252.421,129.929 252.697 C 130.219 252.974,130.616 253.200,130.811 253.200 C 131.006 253.200,132.073 253.735,133.182 254.390 C 134.292 255.044,135.200 255.487,135.200 255.374 C 135.200 255.261,135.559 255.504,135.999 255.913 C 136.831 256.688,139.762 258.251,140.800 258.472 C 141.130 258.542,141.490 258.699,141.600 258.820 C 142.017 259.279,146.030 261.600,146.406 261.600 C 146.623 261.600,146.800 261.780,146.800 262.000 C 146.800 262.220,147.055 262.400,147.367 262.400 C 147.678 262.400,147.998 262.594,148.077 262.832 C 148.156 263.069,148.905 263.356,149.740 263.468 C 152.457 263.835,152.384 264.353,152.376 244.534 C 152.368 224.800,152.479 225.587,149.514 224.369 C 148.791 224.072,147.844 223.501,147.408 223.099 C 146.972 222.698,146.167 222.256,145.618 222.119 C 145.069 221.981,143.815 221.358,142.832 220.734 C 141.848 220.110,140.822 219.600,140.552 219.600 C 140.282 219.600,139.527 219.150,138.874 218.601 C 138.221 218.051,136.362 216.960,134.743 216.176 C 133.124 215.392,130.675 214.053,129.300 213.200 C 127.925 212.347,126.800 211.756,126.800 211.886 C 126.800 212.017,126.485 211.840,126.100 211.493 C 125.715 211.146,124.905 210.739,124.300 210.588 C 123.695 210.437,123.200 210.164,123.200 209.983 C 123.200 209.801,122.570 209.424,121.800 209.146 C 121.030 208.867,120.400 208.533,120.400 208.402 C 120.400 208.272,119.095 207.547,117.500 206.792 C 115.905 206.037,114.362 205.190,114.071 204.909 C 113.781 204.629,113.286 204.400,112.971 204.400 C 112.657 204.400,112.400 204.232,112.400 204.026 C 112.400 203.820,111.770 203.424,111.000 203.146 C 110.230 202.867,109.600 202.485,109.600 202.296 C 109.600 202.107,109.440 202.051,109.245 202.172 C 109.050 202.293,108.668 202.123,108.396 201.796 C 108.124 201.468,107.767 201.200,107.602 201.200 C 107.437 201.200,106.450 200.823,105.408 200.362 C 103.477 199.508,103.401 198.946,105.170 198.606 C 105.671 198.509,106.305 198.245,106.578 198.019 C 106.850 197.792,107.192 197.725,107.337 197.870 C 107.482 198.015,107.600 197.943,107.600 197.710 C 107.600 197.477,108.050 197.174,108.600 197.036 C 109.150 196.898,109.600 196.598,109.600 196.369 C 109.600 196.140,109.780 196.064,110.000 196.200 C 110.220 196.336,110.400 196.276,110.400 196.067 C 110.400 195.858,110.850 195.574,111.400 195.436 C 111.950 195.298,112.400 195.008,112.400 194.792 C 112.400 194.577,112.625 194.398,112.900 194.396 C 113.628 194.390,117.325 192.616,118.012 191.942 C 118.336 191.625,119.185 191.127,119.900 190.835 C 120.615 190.542,121.200 190.134,121.200 189.928 C 121.200 189.722,121.365 189.655,121.566 189.779 C 121.767 189.903,121.992 189.869,122.066 189.702 C 122.140 189.536,123.370 188.814,124.800 188.098 C 127.997 186.497,132.028 184.208,132.700 183.612 C 132.975 183.368,133.200 183.293,133.200 183.446 C 133.200 183.599,133.530 183.426,133.932 183.061 C 134.335 182.697,134.785 182.519,134.932 182.666 C 135.080 182.813,135.200 182.723,135.200 182.467 C 135.200 182.210,135.457 182.000,135.771 182.000 C 136.086 182.000,136.581 181.767,136.871 181.483 C 137.162 181.199,137.985 180.727,138.700 180.435 C 139.415 180.142,140.000 179.766,140.000 179.598 C 140.000 179.320,140.918 178.926,142.360 178.585 C 142.668 178.513,143.070 178.216,143.254 177.927 C 143.437 177.637,143.593 177.580,143.600 177.800 C 143.608 178.057,143.717 178.053,143.906 177.789 C 144.068 177.563,144.965 177.041,145.900 176.628 C 146.835 176.216,147.600 175.762,147.600 175.620 C 147.600 175.477,148.210 175.140,148.955 174.871 C 149.700 174.601,150.773 173.918,151.339 173.352 L 152.368 172.323 152.392 154.784 L 152.415 137.245 151.532 136.423 C 150.361 135.331,150.148 135.360,146.841 137.061 M248.006 136.788 C 247.728 137.308,247.593 143.559,247.608 155.175 C 247.633 173.753,247.657 174.000,249.429 174.000 C 249.743 174.000,250.000 174.168,250.000 174.373 C 250.000 174.578,250.397 174.872,250.881 175.026 C 251.366 175.180,252.009 175.552,252.310 175.853 C 252.611 176.154,253.114 176.400,253.429 176.400 C 253.743 176.400,254.000 176.591,254.000 176.824 C 254.000 177.057,254.165 177.145,254.368 177.020 C 254.570 176.895,254.999 177.056,255.320 177.377 C 255.642 177.699,256.016 177.850,256.152 177.714 C 256.289 177.578,256.400 177.650,256.400 177.874 C 256.400 178.098,257.705 178.879,259.300 179.610 C 260.895 180.340,262.260 181.087,262.333 181.269 C 262.407 181.451,262.722 181.600,263.033 181.600 C 263.345 181.600,263.601 181.735,263.602 181.900 C 263.604 182.065,264.909 182.830,266.502 183.600 C 268.096 184.370,269.640 185.227,269.932 185.504 C 270.225 185.781,270.630 185.905,270.832 185.780 C 271.035 185.655,271.200 185.743,271.200 185.976 C 271.200 186.209,271.470 186.400,271.800 186.400 C 272.130 186.400,272.400 186.577,272.400 186.792 C 272.400 187.008,272.850 187.298,273.400 187.436 C 273.950 187.574,274.400 187.858,274.400 188.067 C 274.400 188.276,274.565 188.345,274.768 188.220 C 274.970 188.095,275.379 188.219,275.677 188.496 C 275.975 188.773,276.485 189.058,276.810 189.130 C 277.134 189.201,277.460 189.428,277.534 189.632 C 277.608 189.837,277.833 189.903,278.034 189.779 C 278.235 189.655,278.400 189.711,278.400 189.905 C 278.400 190.099,279.747 190.933,281.394 191.758 C 283.041 192.583,284.483 193.411,284.599 193.598 C 284.715 193.785,285.347 194.057,286.005 194.201 C 286.662 194.345,287.200 194.640,287.200 194.855 C 287.200 195.071,287.381 195.135,287.603 194.998 C 287.824 194.861,288.107 195.014,288.232 195.338 C 288.356 195.662,289.030 196.153,289.729 196.430 C 290.428 196.707,291.243 197.121,291.540 197.350 C 291.838 197.578,292.288 197.796,292.540 197.834 C 294.040 198.061,296.830 200.400,295.600 200.400 C 294.814 200.400,294.593 200.474,294.060 200.916 C 293.762 201.163,293.258 201.403,292.939 201.450 C 292.619 201.497,291.873 201.860,291.279 202.257 C 290.686 202.654,290.110 202.986,290.000 202.994 C 289.890 203.002,288.630 203.647,287.200 204.427 C 285.770 205.208,283.925 206.192,283.100 206.614 C 282.275 207.036,281.600 207.532,281.600 207.715 C 281.600 207.898,281.432 207.944,281.228 207.817 C 281.023 207.691,280.738 207.777,280.594 208.010 C 280.450 208.243,279.627 208.716,278.766 209.060 C 277.905 209.405,277.200 209.828,277.200 210.000 C 277.200 210.172,276.728 210.432,276.152 210.576 C 275.575 210.721,274.841 211.102,274.519 211.423 C 274.198 211.745,273.770 211.905,273.568 211.780 C 273.365 211.655,273.200 211.701,273.200 211.882 C 273.200 212.210,272.613 212.560,270.014 213.780 C 269.252 214.138,268.532 214.561,268.414 214.720 C 268.296 214.878,267.255 215.442,266.100 215.973 C 264.945 216.503,264.000 217.086,264.000 217.268 C 264.000 217.451,263.865 217.558,263.700 217.506 C 263.313 217.385,258.693 220.013,258.306 220.574 C 258.127 220.834,258.007 220.844,258.000 220.600 C 257.992 220.333,257.890 220.333,257.694 220.600 C 257.532 220.820,255.837 221.789,253.927 222.753 C 252.016 223.717,249.818 225.030,249.042 225.669 L 247.631 226.832 247.618 244.516 C 247.610 254.242,247.761 262.445,247.953 262.745 C 248.656 263.841,250.883 263.607,253.000 262.214 C 254.100 261.490,257.061 259.793,259.581 258.442 C 262.101 257.090,264.261 255.853,264.381 255.693 C 264.501 255.532,266.339 254.539,268.464 253.486 C 270.590 252.433,272.828 251.178,273.439 250.698 C 274.049 250.218,274.782 249.791,275.066 249.749 C 275.351 249.707,275.870 249.387,276.221 249.037 C 276.571 248.686,277.024 248.400,277.229 248.400 C 277.433 248.400,277.691 248.401,277.801 248.403 C 278.194 248.408,282.602 245.828,282.733 245.516 C 282.807 245.342,283.122 245.200,283.433 245.200 C 283.745 245.200,284.000 245.020,284.000 244.800 C 284.000 244.580,284.360 244.400,284.800 244.400 C 285.240 244.400,285.600 244.220,285.600 244.000 C 285.600 243.780,285.960 243.600,286.400 243.600 C 286.840 243.600,287.200 243.420,287.200 243.200 C 287.200 242.980,287.404 242.800,287.653 242.800 C 288.102 242.800,295.765 238.670,300.000 236.146 C 301.210 235.424,303.471 234.224,305.024 233.478 C 306.577 232.732,308.248 231.780,308.737 231.361 C 309.226 230.943,309.755 230.597,309.913 230.594 C 310.071 230.591,310.406 230.457,310.658 230.297 C 310.909 230.136,312.619 229.223,314.458 228.267 C 321.538 224.585,328.377 220.872,329.465 220.119 C 330.089 219.686,331.855 218.753,333.390 218.045 C 336.140 216.776,337.784 215.517,337.309 215.043 C 337.176 214.909,337.269 214.800,337.515 214.800 C 338.007 214.800,338.240 185.092,337.759 183.836 C 337.513 183.198,333.600 180.925,333.600 181.422 C 333.600 181.551,333.317 181.374,332.971 181.029 C 332.626 180.683,332.113 180.400,331.833 180.400 C 331.552 180.400,330.907 180.040,330.400 179.600 C 329.893 179.160,329.235 178.800,328.939 178.800 C 328.642 178.800,328.400 178.632,328.400 178.427 C 328.400 178.222,327.995 177.928,327.500 177.773 C 327.005 177.619,326.497 177.332,326.371 177.137 C 326.244 176.941,325.718 176.700,325.200 176.600 C 324.682 176.500,324.113 176.190,323.936 175.909 C 323.758 175.629,323.607 175.580,323.600 175.800 C 323.593 176.020,323.437 175.963,323.254 175.673 C 323.070 175.384,322.667 175.110,322.357 175.064 C 322.048 175.019,321.351 174.671,320.808 174.291 C 320.266 173.911,319.592 173.600,319.311 173.600 C 319.030 173.600,318.800 173.449,318.800 173.264 C 318.800 172.924,317.216 172.070,316.742 172.154 C 316.600 172.179,316.150 171.898,315.742 171.529 C 315.334 171.159,314.820 170.842,314.600 170.824 C 313.701 170.749,312.800 170.323,312.800 169.973 C 312.800 169.768,312.530 169.600,312.200 169.600 C 311.870 169.600,311.600 169.456,311.600 169.280 C 311.600 168.960,308.518 167.325,307.845 167.288 C 307.649 167.277,307.361 167.061,307.205 166.808 C 307.048 166.554,306.668 166.291,306.360 166.223 C 305.194 165.965,303.200 165.012,303.200 164.712 C 303.200 164.541,302.930 164.400,302.600 164.400 C 302.270 164.400,302.000 164.249,302.000 164.064 C 302.000 163.879,300.425 162.971,298.500 162.047 C 296.575 161.122,293.920 159.675,292.600 158.831 C 291.280 157.987,290.125 157.365,290.032 157.449 C 289.940 157.533,289.535 157.303,289.132 156.939 C 288.730 156.574,288.397 156.439,288.394 156.638 C 288.391 156.837,288.256 156.805,288.094 156.567 C 287.932 156.328,286.630 155.521,285.200 154.772 C 283.770 154.024,282.362 153.184,282.071 152.906 C 281.781 152.628,281.286 152.400,280.971 152.400 C 280.657 152.400,280.399 152.265,280.398 152.100 C 280.397 151.935,279.318 151.350,278.000 150.800 C 276.682 150.250,275.603 149.665,275.602 149.500 C 275.601 149.335,275.330 149.200,275.000 149.200 C 274.670 149.200,274.400 149.009,274.400 148.776 C 274.400 148.543,274.220 148.464,274.000 148.600 C 273.780 148.736,273.600 148.685,273.600 148.488 C 273.600 148.290,272.205 147.449,270.500 146.618 C 268.795 145.787,266.930 144.774,266.355 144.366 C 265.780 143.957,265.221 143.713,265.112 143.821 C 265.003 143.930,264.686 143.745,264.408 143.410 C 264.130 143.074,263.654 142.800,263.351 142.800 C 263.048 142.800,262.800 142.620,262.800 142.400 C 262.800 142.180,262.440 142.000,262.000 142.000 C 261.560 142.000,261.200 141.820,261.200 141.600 C 261.200 141.380,260.989 141.200,260.731 141.200 C 260.474 141.200,258.248 140.030,255.785 138.600 C 250.894 135.759,248.816 135.275,248.006 136.788 M173.700 278.299 C 176.945 278.366,182.255 278.366,185.500 278.299 C 188.745 278.232,186.090 278.177,179.600 278.177 C 173.110 278.177,170.455 278.232,173.700 278.299 " stroke="none" fill="#d6514d" fill-rule="evenodd"></path></g></svg>